<svg width="26" height="25" viewBox="0 0 26 25" fill="none" xmlns="http://www.w3.org/2000/svg">
<path d="M13.0147 18.6474C12.2299 18.6474 11.4771 18.9593 10.9222 19.5144C10.3674 20.0693 10.0558 20.822 10.056 21.6069C10.0562 22.3917 10.3681 23.1442 10.9234 23.6991C11.4785 24.2538 12.2315 24.5651 13.0163 24.5647C13.8012 24.5643 14.5535 24.2522 15.1082 23.6967C15.6627 23.1414 15.974 22.3884 15.9734 21.6036C15.972 20.8196 15.6599 20.068 15.1052 19.5138C14.5505 18.9597 13.7987 18.648 13.0147 18.6473V18.6474ZM13.0147 24.3191V24.3193C12.2943 24.3193 11.6036 24.033 11.0942 23.5239C10.5849 23.0145 10.2988 22.3238 10.2988 21.6034C10.2988 20.8832 10.5849 20.1925 11.0942 19.6831C11.6036 19.1737 12.2943 18.8877 13.0147 18.8877C13.7349 18.8877 14.4256 19.1737 14.935 19.6831C15.4443 20.1924 15.7304 20.8832 15.7304 21.6034C15.7304 22.3238 15.4443 23.0145 14.935 23.5239C14.4257 24.033 13.7349 24.3193 13.0147 24.3193V24.3191Z" fill="#BE3717" stroke="#BE3717" stroke-width="0.8"/>
<path d="M18.0503 14.3406C16.5664 13.3111 14.8027 12.7613 12.9967 12.7652C11.1907 12.769 9.42944 13.3265 7.95 14.3623L7.75073 14.5008L9.97579 17.6781L10.1751 17.5396V17.5398C11.003 16.9607 11.9879 16.6484 12.9983 16.645C14.0086 16.6415 14.9958 16.9469 15.8276 17.5203L16.0269 17.6563L18.2495 14.4815L18.0503 14.3406ZM15.9661 17.3186C15.0932 16.7177 14.0577 16.3979 12.9979 16.4018C11.9382 16.4056 10.905 16.7332 10.0366 17.3406L8.09335 14.5616C9.53173 13.5545 11.2444 13.0124 13.0004 13.0086C14.7563 13.0047 16.4715 13.539 17.9143 14.5396L15.9661 17.3186Z" fill="#BE3717" stroke="#BE3717" stroke-width="0.8"/>
<path d="M24.7985 4.70186C21.3361 2.28832 17.2159 0.996157 12.9955 1.00001C8.77494 1.00408 4.65714 2.30378 1.19926 4.72382L1 4.86229L3.23015 8.04444L3.42942 7.90597H3.42922C6.23357 5.94139 9.57354 4.88571 12.9976 4.8818C16.4217 4.87794 19.7645 5.92593 22.5732 7.88422L22.7725 8.02269L25 4.84298L24.7985 4.70186ZM22.7168 7.68006C19.8661 5.69107 16.473 4.62622 12.997 4.63008C9.52102 4.63414 6.13013 5.70653 3.28388 7.70203L1.34064 4.92308C4.75765 2.53172 8.82637 1.24747 12.9968 1.24341C17.1674 1.23954 21.2389 2.51626 24.6603 4.90117L22.7168 7.68006Z" fill="#BE3717" stroke="#BE3717" stroke-width="0.8"/>
<path d="M21.4244 9.52147C18.9523 7.79925 16.0109 6.87775 12.9981 6.8816C9.98512 6.88567 7.04637 7.81471 4.57854 9.54323L4.37927 9.6817L6.60433 12.859L6.80359 12.7205C8.61852 11.4505 10.7793 10.7675 12.9942 10.7636C15.2096 10.7597 17.3726 11.435 19.1922 12.6987L19.3914 12.8372L21.6238 9.66218L21.4244 9.52147ZM19.3378 12.5019C17.4767 11.2079 15.2635 10.5162 12.9967 10.5203C10.73 10.5241 8.51915 11.2234 6.66242 12.5239L4.71918 9.74493C7.14553 8.0453 10.0348 7.13151 12.9977 7.12703C15.96 7.12276 18.8526 8.02802 21.2835 9.72052L19.3378 12.5019Z" fill="#BE3717" stroke="#BE3717" stroke-width="0.8"/>
</svg>
