<svg width="30" height="31" viewBox="0 0 30 31" fill="none" xmlns="http://www.w3.org/2000/svg">
<path d="M13.1866 11.875C14.9103 11.8748 16.5635 11.302 17.7821 10.2822C19.0009 9.26227 19.6855 7.87923 19.6855 6.4373C19.6855 4.99517 19.0005 3.61213 17.7816 2.59241C16.5627 1.57285 14.9096 1 13.1858 1C11.4621 1 9.80916 1.57285 8.5903 2.59262C7.37144 3.61239 6.68665 4.99538 6.68665 6.43751C6.68858 7.87923 7.37404 9.26144 8.59246 10.2808C9.81114 11.3004 11.4633 11.8736 13.1866 11.875ZM13.1866 1.90625C14.6231 1.90645 16.0006 2.38386 17.0163 3.23368C18.0319 4.08348 18.6023 5.23613 18.6023 6.43772C18.6023 7.63951 18.0314 8.79195 17.0156 9.64176C15.9998 10.4914 14.6223 10.9688 13.1858 10.9688C11.7496 10.9688 10.3718 10.4914 9.3563 9.64155C8.34053 8.79174 7.76988 7.6393 7.76988 6.43751C7.77133 5.23613 8.34269 4.08431 9.35822 3.23466C10.3737 2.38527 11.7505 1.90744 13.1866 1.90625Z" fill="#BE3717" stroke="#BE3717" stroke-width="0.8"/>
<path d="M14.4542 25.6666H2.62461C2.32624 25.667 2.08396 25.4651 2.08299 25.2157V16.7503C2.08299 13.7339 3.98057 12.0728 7.42638 12.0728H9.77806C9.20114 11.8286 8.66362 11.5241 8.17883 11.1665H7.42638C3.34202 11.1665 1 13.2017 1 16.7501V25.2155C1.00073 25.5755 1.1724 25.9206 1.47706 26.1751C1.78172 26.4294 2.19447 26.5724 2.62486 26.5726H14.9601C14.8646 26.4599 14.7841 26.3388 14.7198 26.2117L14.4542 25.6666Z" fill="#BE3717" stroke="#BE3717" stroke-width="0.8"/>
<path d="M18.1935 11.1666C17.7087 11.5243 17.1714 11.8287 16.5945 12.0729H18.9452C22.3913 12.0729 24.2891 13.7341 24.2891 16.7504V17.5106H25.3724V16.7504C25.3724 13.2019 23.0298 11.1668 18.9454 11.1668L18.1935 11.1666Z" fill="#BE3717" stroke="#BE3717" stroke-width="0.8"/>
<path d="M29.0104 18.7661C28.8313 18.5582 28.5404 18.438 28.234 18.4457H17.0414C16.7421 18.4457 16.4998 18.6486 16.4998 18.8988C16.4998 19.1491 16.7421 19.352 17.0414 19.352H28.0001L27.3939 20.7111H21.8525C21.5534 20.7111 21.3109 20.914 21.3109 21.1643C21.3109 21.4145 21.5534 21.6174 21.8525 21.6174H26.9901L26.485 22.7502H22.9357C22.6366 22.7502 22.3941 22.9531 22.3941 23.2033C22.3941 23.4536 22.6366 23.6565 22.9357 23.6565H26.0812L25.2303 25.5652C25.1819 25.6354 25.098 25.6834 25.0023 25.6955H16.9752C16.8715 25.6834 16.7801 25.6326 16.7261 25.5577L12.0823 16.009C11.9991 15.8382 11.8008 15.7266 11.5805 15.7266H9.12414C8.82504 15.7266 8.58252 15.9295 8.58252 16.1797C8.58252 16.4299 8.82504 16.6328 9.12414 16.6328H11.2161L15.7227 25.8989C15.8315 26.1026 16.0066 26.2765 16.2283 26.4007C16.4498 26.5251 16.7085 26.5945 16.9752 26.6014H25.0023C25.2704 26.5949 25.5304 26.5235 25.7512 26.3959C25.9717 26.2682 26.1433 26.0898 26.2451 25.8821L29.0983 19.4813C29.2127 19.2455 29.1798 18.9772 29.0105 18.7656L29.0104 18.7661Z" fill="#BE3717" stroke="#BE3717" stroke-width="0.8"/>
<path d="M18.8731 27.2813C18.4422 27.2813 18.0287 27.4245 17.7241 27.6794C17.4195 27.9343 17.2483 28.2802 17.2483 28.6406C17.2483 29.0011 17.4195 29.3471 17.7241 29.6019C18.0288 29.8567 18.4423 30 18.8731 30C19.3039 30 19.7175 29.8568 20.0221 29.6019C20.3267 29.347 20.4979 29.0011 20.4979 28.6406C20.4975 28.2802 20.326 27.9346 20.0216 27.6798C19.7169 27.4251 19.3039 27.2817 18.8731 27.2812L18.8731 27.2813ZM18.8731 29.0938C18.654 29.0938 18.4565 28.9833 18.3728 28.814C18.2889 28.6447 18.3351 28.4499 18.4901 28.3202C18.6451 28.1906 18.878 28.1519 19.0803 28.2221C19.2827 28.2921 19.4147 28.4574 19.4147 28.6407C19.4145 28.8909 19.1722 29.0936 18.8731 29.0938Z" fill="#BE3717" stroke="#BE3717" stroke-width="0.8"/>
<path d="M23.2061 27.2813C22.7752 27.2813 22.3618 27.4245 22.0571 27.6794C21.7525 27.9343 21.5813 28.2802 21.5813 28.6406C21.5813 29.0011 21.7525 29.3471 22.0571 29.6019C22.3618 29.8567 22.7753 30 23.2061 30C23.6369 30 24.0505 29.8568 24.3551 29.6019C24.6597 29.347 24.831 29.0011 24.831 28.6406C24.8305 28.2802 24.659 27.9346 24.3546 27.6798C24.05 27.4251 23.637 27.2817 23.2061 27.2812L23.2061 27.2813ZM23.2061 29.0938C22.9871 29.0938 22.7895 28.9833 22.7059 28.814C22.622 28.6447 22.6681 28.4499 22.8231 28.3202C22.9781 28.1906 23.211 28.1519 23.4133 28.2221C23.6157 28.2921 23.7477 28.4574 23.7477 28.6407C23.7475 28.8909 23.5052 29.0936 23.2061 29.0938Z" fill="#BE3717" stroke="#BE3717" stroke-width="0.8"/>
</svg>
