<svg width="33" height="33" viewBox="0 0 33 33" fill="none" xmlns="http://www.w3.org/2000/svg">
<path d="M5.42969 4.38368C5.42969 6.24955 6.94744 7.76723 8.81324 7.76723C10.6791 7.76723 12.1968 6.24948 12.1968 4.38368C12.1968 2.5178 10.679 1.00012 8.81324 1.00012C6.94764 1.00012 5.42969 2.51787 5.42969 4.38368ZM11.4219 4.38368C11.4219 5.82192 10.2518 6.9923 8.81331 6.9923C7.37507 6.9923 6.20468 5.82219 6.20468 4.38368C6.20468 2.94543 7.37507 1.77505 8.81331 1.77505C10.2518 1.77505 11.4219 2.94543 11.4219 4.38368Z" fill="#BE3717" stroke="#BE3717"/>
<path d="M24.2095 1C22.3436 1 20.826 2.51775 20.826 4.38355C20.826 6.24943 22.3437 7.76711 24.2095 7.76711C26.0753 7.76711 27.5931 6.24936 27.5931 4.38355C27.5931 2.51768 26.0753 1 24.2095 1ZM24.2095 6.99225C22.7713 6.99225 21.6009 5.82214 21.6009 4.38362C21.6009 2.94538 22.7713 1.775 24.2095 1.775C25.6478 1.775 26.8181 2.9451 26.8181 4.38362C26.8181 5.82214 25.648 6.99225 24.2095 6.99225Z" fill="#BE3717" stroke="#BE3717"/>
<path d="M1.38724 20.579H2.53735L2.53708 31.6123C2.53708 31.8264 2.71061 31.9999 2.92469 31.9999H30.1222C30.3363 31.9999 30.5098 31.8264 30.5098 31.6123L30.5096 20.579H31.6121C31.8262 20.579 31.9998 20.4055 31.9998 20.1914V16.4999C31.9998 16.2858 31.8262 16.1123 31.6121 16.1123H30.4858V15.2781C30.4858 11.8172 27.6704 9.00183 24.2098 9.00183C20.7493 9.00183 17.9338 11.8173 17.9338 15.2781V16.1123H15.0657V15.2781C15.0657 11.8172 12.2502 9.00183 8.78967 9.00183C5.3291 9.00183 2.51364 11.8173 2.51364 15.2781L2.51391 16.1123H1.38761C1.17353 16.1123 1 16.2858 1 16.4999V20.1914C1 20.4055 1.17353 20.579 1.38761 20.579H1.38724ZM29.7341 31.2248H3.31159V20.579H29.7341V31.2248ZM18.7084 15.2786C18.7084 12.2453 21.1762 9.77747 24.2095 9.77747C27.2428 9.77747 29.7106 12.2453 29.7106 15.2786L29.7103 16.1124H18.7082L18.7084 15.2786ZM3.28806 15.2786C3.28806 12.2453 5.75587 9.77747 8.78916 9.77747C11.8224 9.77747 14.2902 12.2453 14.2902 15.2786V16.1124H3.28806V15.2786ZM1.77412 16.8876H31.224V19.8041L1.77412 19.8039V16.8876Z" fill="#BE3717" stroke="#BE3717"/>
</svg>
