<svg width="29" height="23" viewBox="0 0 29 23" fill="none" xmlns="http://www.w3.org/2000/svg">
<path d="M27.4667 8.77065L28.9998 8.15008L27.4305 7.02356L28.8524 6.44381L19.8531 0L14.2704 1.72922L15.0289 2.37726L19.6735 0.932043L27.0644 6.23528L22.0652 8.28371L22.0352 8.29479L21.6043 7.94558L26.2659 6.10703L19.6078 1.28808L15.3423 2.64867L15.0207 2.37731L14.2548 1.72927L13.7243 1.28028L7.02719 3.48519L7.45557 3.83264L0 6.15546L1.39573 7.4291L0.0039713 7.86121L1.41976 9.14266L0.0039713 9.58258L1.41976 10.8638L0.0039713 11.3037L1.41976 12.5851L0.0039713 13.025L1.41976 14.3065L0.0039713 14.7464L9.02574 23L15.3563 20.398V21.0294L22.172 18.6172V17.7699L28.9652 15.0349L27.4496 13.9343L28.9917 13.3135L27.4629 12.213L28.9983 11.5924L27.4662 10.4919L29 9.87108L27.4667 8.77065ZM19.459 2.22377L24.5205 5.88725L20.8712 7.32621L20.0988 6.67236C19.8483 4.6149 17.827 3.90584 16.5406 3.66273L16.1037 3.29361L19.459 2.22377ZM8.25414 4.4828L8.63223 4.78792L2.65694 6.69374L9.39316 12.7616L15.3602 10.365L15.3559 10.521V10.8334L9.12166 13.4281L1.58217 6.5239L8.25414 4.4828ZM13.8066 8.98202L14.7442 9.74269L9.56833 11.7836L4.3167 7.05227L9.41972 5.4251L9.78529 5.72141C9.70722 6.69499 9.97946 8.82631 13.8066 8.98201V8.98202ZM8.94705 14.4105L15.3559 11.7462V12.6009L9.19821 15.1331L1.62029 8.23013L2.04641 8.09004L8.94705 14.4105ZM9.02562 16.115L15.3557 13.5132V14.322L9.19799 16.8537L1.62007 9.95142L2.07498 9.80226L9.02562 16.115ZM9.02562 17.8361L15.3557 15.2344V16.0432L9.19799 18.5754L1.62007 11.6724L2.07498 11.5235L9.02562 17.8361ZM9.02562 19.5577L15.3557 16.956V17.7648L9.19799 20.297L1.62007 13.394L2.07498 13.2449L9.02562 19.5577ZM9.19777 22.0176L1.61985 15.1153L2.12354 14.9662L9.0135 21.279L15.3556 18.6775V19.4863L9.19777 22.0176ZM21.095 9.47985V18.0295L16.4316 19.8121V10.1163L15.5326 9.38709L10.324 5.11865L9.56635 4.4812L9.20728 4.1786L8.75413 3.80596L13.5376 2.23225L14.0631 2.6752L14.3914 2.95235L15.1543 3.59737L19.9791 7.67907L20.6674 8.29889L21.0943 8.79877L21.0948 9.48004L21.095 9.47985ZM27.2255 9.66277L22.1713 11.694V10.8858L26.4879 9.14572L27.2255 9.66277ZM26.4715 7.40045L27.2079 7.94165L22.1712 9.97293V9.13996L26.4715 7.40045ZM27.2255 14.8265L22.1713 16.858V16.0497L26.4879 14.3097L27.2255 14.8265ZM27.2255 13.1053L22.1713 15.1369V14.3281L26.4879 12.5885L27.2255 13.1053ZM27.2255 11.3842L22.1713 13.4152V12.6069L26.4879 10.8674L27.2255 11.3842Z" fill="#BE3717"/>
<path d="M19.104 12.8441C18.5536 12.7196 18.3302 12.5964 18.3306 12.3496C18.3308 12.1319 18.4662 11.8785 18.8812 11.7906C19.3414 11.6929 19.6414 11.8085 19.8013 11.8666L19.9951 10.9505C19.7712 10.8743 19.4844 10.8184 19.0628 10.8921L19.0641 10.2104L18.4364 10.3434L18.4349 11.0794C17.7512 11.3798 17.354 11.9975 17.3525 12.6884C17.3513 13.4393 17.8172 13.729 18.5014 13.8627C18.9798 13.9547 19.1835 14.0967 19.1833 14.3914C19.1825 14.694 18.9334 14.9242 18.5615 15.0033C18.1471 15.0916 17.77 15.0096 17.5023 14.887L17.3091 15.8348C17.5516 15.9466 17.967 16.0048 18.3948 15.9375L18.3935 16.6737L19.027 16.5393L19.0284 15.7412C19.7629 15.438 20.1597 14.765 20.1607 14.0758C20.1626 13.3701 19.8629 13.0073 19.104 12.8441L19.104 12.8441Z" fill="#BE3717"/>
</svg>
