<svg width="26" height="25" viewBox="0 0 26 25" fill="none" xmlns="http://www.w3.org/2000/svg">
<path fill-rule="evenodd" clip-rule="evenodd" d="M0.946289 12.7731C0.946289 7.93425 0.946289 5.51484 2.09934 3.77221C2.61423 2.99404 3.28066 2.32761 4.05883 1.81272C5.80146 0.659668 8.22087 0.659668 13.0597 0.659668C17.8985 0.659668 20.3179 0.659668 22.0606 1.81272C22.8387 2.32761 23.5052 2.99404 24.02 3.77221C25.1731 5.51484 25.1731 7.93425 25.1731 12.7731C25.1731 17.6119 25.1731 20.0313 24.02 21.7739C23.5052 22.5521 22.8387 23.2185 22.0606 23.7334C20.3179 24.8865 17.8985 24.8865 13.0597 24.8865C8.22087 24.8865 5.80146 24.8865 4.05883 23.7334C3.28066 23.2185 2.61423 22.5521 2.09934 21.7739C0.946289 20.0313 0.946289 17.6119 0.946289 12.7731ZM19.3318 12.7735C19.3318 16.237 16.5241 19.0448 13.0605 19.0448C9.59701 19.0448 6.78927 16.237 6.78927 12.7735C6.78927 9.30998 9.59701 6.50225 13.0605 6.50225C16.5241 6.50225 19.3318 9.30998 19.3318 12.7735ZM13.0605 16.923C15.3522 16.923 17.2101 15.0652 17.2101 12.7735C17.2101 10.4818 15.3522 8.62398 13.0605 8.62398C10.7688 8.62398 8.91101 10.4818 8.91101 12.7735C8.91101 15.0652 10.7688 16.923 13.0605 16.923ZM19.58 7.66074C20.3938 7.66074 21.0536 7.00101 21.0536 6.18718C21.0536 5.37336 20.3938 4.71362 19.58 4.71362C18.7662 4.71362 18.1064 5.37336 18.1064 6.18718C18.1064 7.00101 18.7662 7.66074 19.58 7.66074Z" fill="black"/>
</svg>
