<svg width="136" height="48" viewBox="0 0 136 48" fill="none" xmlns="http://www.w3.org/2000/svg">
<g clip-path="url(#clip0_186_2999)">
<path fill-rule="evenodd" clip-rule="evenodd" d="M38.455 13.0179C38.459 13.0279 38.465 13.0379 38.467 13.0479C38.4812 13.1015 38.4886 13.1566 38.489 13.2119V21.7979C38.4893 21.9077 38.4607 22.0157 38.4061 22.111C38.3515 22.2063 38.2729 22.2856 38.178 22.3409L31.04 26.4909V34.7139C31.0402 34.8238 31.0114 34.9319 30.9566 35.0272C30.9019 35.1225 30.823 35.2017 30.728 35.2569L15.829 43.9169C15.7947 43.9355 15.7585 43.9503 15.721 43.9609C15.707 43.9669 15.694 43.9749 15.679 43.9789C15.5749 44.007 15.4651 44.007 15.361 43.9789C15.3514 43.9765 15.342 43.9731 15.333 43.9689L15.313 43.9589C15.278 43.9459 15.243 43.9349 15.21 43.9159L0.311001 35.2569C0.216218 35.2015 0.137622 35.1222 0.0830524 35.0269C0.0284829 34.9316 -0.000153033 34.8237 6.15061e-07 34.7139V8.95593C0.000384893 8.90095 0.00743638 8.84622 0.0210006 8.79293C0.0270006 8.77393 0.0370006 8.75793 0.0430006 8.73993L0.0630006 8.68693C0.0685761 8.67179 0.075261 8.65709 0.0830006 8.64293C0.0950006 8.62293 0.112001 8.60593 0.126001 8.58693C0.144001 8.56193 0.159001 8.53693 0.181001 8.51393C0.199001 8.49593 0.221001 8.48393 0.241001 8.46693C0.264001 8.44893 0.285001 8.42893 0.310001 8.41393L7.76 4.08393C7.85412 4.02912 7.96109 4.00024 8.07 4.00024C8.17892 4.00024 8.28588 4.02912 8.38 4.08393L15.83 8.41393C15.855 8.42893 15.876 8.44893 15.899 8.46693L15.92 8.48293C15.934 8.49293 15.948 8.50293 15.96 8.51393C15.9749 8.52964 15.9883 8.54671 16 8.56493L16.015 8.58693C16.028 8.60693 16.045 8.62193 16.057 8.64293C16.074 8.67293 16.085 8.70693 16.097 8.73993L16.107 8.76193L16.119 8.79193C16.133 8.84547 16.1401 8.90059 16.14 8.95593V25.0439L22.348 21.4359V13.2119C22.3483 13.1569 22.3557 13.1021 22.37 13.0489C22.375 13.0299 22.385 13.0139 22.391 12.9959L22.398 12.9759C22.4104 12.9254 22.4368 12.8793 22.474 12.8429C22.492 12.8179 22.508 12.7929 22.529 12.7699C22.539 12.7599 22.549 12.7529 22.559 12.7449C22.569 12.7379 22.58 12.7309 22.589 12.7229L22.625 12.6929C22.6354 12.6844 22.6464 12.6767 22.658 12.6699L30.108 8.33993C30.2021 8.28512 30.3091 8.25624 30.418 8.25624C30.5269 8.25624 30.6339 8.28512 30.728 8.33993L38.178 12.6699C38.204 12.6849 38.224 12.7059 38.247 12.7229L38.269 12.7389C38.282 12.7489 38.296 12.7589 38.307 12.7699C38.322 12.7859 38.3354 12.8033 38.347 12.8219L38.363 12.8429L38.379 12.8629C38.389 12.8749 38.398 12.8859 38.405 12.8989C38.4185 12.9246 38.4299 12.9514 38.439 12.9789L38.445 12.9959L38.455 13.0179ZM9.322 30.4529L15.518 33.9929L29.17 26.1259L22.969 22.5209L9.322 30.4529ZM29.798 25.0439V17.9039L23.59 14.2969V21.4369L29.797 25.0439H29.798ZM36.624 13.2139L30.418 9.60593L24.213 13.2129L30.418 16.8189L36.624 13.2129V13.2139ZM8.691 13.6479V29.3739L14.899 25.7649V10.0399L8.69 13.6479H8.691ZM14.275 8.95593L8.07 5.34993L1.864 8.95593L8.07 12.5629L14.275 8.95593ZM7.449 13.6499L1.241 10.0399V34.3499L14.9 42.2899V35.0799L7.765 31.0039H7.763L7.759 30.9999C7.734 30.9849 7.714 30.9649 7.692 30.9469C7.6704 30.9346 7.65056 30.9195 7.633 30.9019L7.631 30.8999C7.618 30.8869 7.607 30.8709 7.596 30.8559C7.59084 30.8485 7.58551 30.8411 7.58 30.8339L7.55 30.7959C7.54414 30.7886 7.53879 30.781 7.534 30.7729L7.533 30.7709C7.52331 30.7539 7.5156 30.7357 7.51 30.7169L7.5 30.6929L7.485 30.6599C7.47926 30.6477 7.47457 30.635 7.471 30.6219C7.46559 30.5996 7.46224 30.5769 7.461 30.5539L7.458 30.5289C7.4569 30.5202 7.45557 30.5116 7.454 30.5029C7.452 30.4889 7.449 30.4739 7.449 30.4589V13.6499V13.6509V13.6499ZM16.14 35.0799V42.2899L29.797 34.3529V27.2099L16.14 35.0799V35.0809V35.0799ZM31.04 25.0429L37.248 21.4349V14.2949L31.04 17.9049V25.0449V25.0429Z" fill="#374151"/>
<path d="M132.739 13.2139H136V34.3599H132.739V13.2139ZM48.3926 13.2139H51.8336V31.2499H58.2966V34.3599H48.3926V13.2159V13.2139Z" fill="#374151"/>
<path fill-rule="evenodd" clip-rule="evenodd" d="M68.5756 20.5249C69.3836 20.9279 70.0056 21.4809 70.4456 22.1849V20.2829H73.7066V34.3599H70.4456V32.4569C70.0066 33.1619 69.3836 33.7159 68.5756 34.1169C67.7676 34.5209 66.9556 34.7219 66.1356 34.7219C65.0786 34.7219 64.1116 34.5259 63.2336 34.1319C62.377 33.7551 61.6076 33.2052 60.9736 32.5169C60.3434 31.8292 59.8467 31.0303 59.5086 30.1609C59.1556 29.256 58.9778 28.2922 58.9846 27.3209C58.9846 26.3349 59.1586 25.3929 59.5086 24.4969C59.8447 23.6219 60.3419 22.8176 60.9746 22.1259C61.6086 21.4375 62.378 20.8873 63.2346 20.5099C64.1116 20.1169 65.0786 19.9199 66.1366 19.9199C66.9546 19.9199 67.7666 20.1219 68.5756 20.5249ZM69.3086 30.4629C69.6756 30.0469 69.9596 29.5649 70.1466 29.0429C70.3466 28.4909 70.4486 27.9089 70.4466 27.3219C70.4466 26.7169 70.3466 26.1419 70.1466 25.5999C69.9598 25.0777 69.6754 24.5958 69.3086 24.1799C68.9441 23.7732 68.5012 23.4443 68.0066 23.2129C67.4775 22.9672 66.8999 22.8434 66.3166 22.8509C65.6966 22.8509 65.1386 22.9709 64.6396 23.2129C64.1513 23.4473 63.7142 23.7759 63.3536 24.1799C62.9936 24.5829 62.7196 25.0559 62.5306 25.5999C62.3392 26.1537 62.2432 26.736 62.2466 27.3219C62.2466 27.9259 62.3406 28.4999 62.5306 29.0419C62.7081 29.5651 62.9879 30.0478 63.3536 30.4619C63.7136 30.8659 64.1416 31.1879 64.6396 31.4299C65.1636 31.6769 65.7366 31.7999 66.3156 31.7919C66.9336 31.7919 67.4976 31.6719 68.0066 31.4299C68.5016 31.1989 68.9446 30.8699 69.3086 30.4629ZM96.9576 22.1859C96.5176 21.4809 95.8946 20.9279 95.0876 20.5249C94.2796 20.1219 93.4676 19.9209 92.6476 19.9209C91.5906 19.9209 90.6236 20.1169 89.7456 20.5099C88.889 20.8873 88.1196 21.4375 87.4856 22.1259C86.8533 22.8174 86.3564 23.6213 86.0206 24.4959C85.6706 25.3969 85.4926 26.3559 85.4966 27.3219C85.4966 28.3289 85.6706 29.2749 86.0206 30.1619C86.3586 31.0309 86.8566 31.8299 87.4866 32.5169C88.1205 33.2056 88.8899 33.7558 89.7466 34.1329C90.6236 34.5259 91.5906 34.7229 92.6486 34.7229C93.4666 34.7229 94.2786 34.5209 95.0876 34.1179C95.8956 33.7159 96.5176 33.1619 96.9576 32.4579V34.3599H100.219V20.2829H96.9576V22.1859ZM96.6576 29.0429C96.4709 29.5652 96.1865 30.0471 95.8196 30.4629C95.4556 30.8698 95.0131 31.1987 94.5186 31.4299C93.9895 31.6758 93.4119 31.7995 92.8286 31.7919C92.2096 31.7919 91.6506 31.6719 91.1516 31.4299C90.6584 31.1931 90.2176 30.8599 89.8554 30.4499C89.4932 30.04 89.2168 29.5615 89.0426 29.0429C88.851 28.4895 88.7546 27.9076 88.7576 27.3219C88.7576 26.7169 88.8526 26.1419 89.0426 25.5999C89.2196 25.0765 89.4994 24.5937 89.8656 24.1799C90.2256 23.7759 90.6636 23.4469 91.1516 23.2129C91.6753 22.9659 92.2486 22.8421 92.8276 22.8509C93.4456 22.8509 94.0096 22.9709 94.5176 23.2129C95.0276 23.4549 95.4606 23.7779 95.8196 24.1799C96.1796 24.5829 96.4586 25.0559 96.6586 25.5999C96.8566 26.1429 96.9576 26.7169 96.9576 27.3219C96.9576 27.9259 96.8576 28.4999 96.6576 29.0419V29.0429Z" fill="#374151"/>
<path d="M76.2813 34.36H79.5433V23.523H85.1393V20.283H76.2803V34.36H76.2813ZM109.197 31.063L113.296 20.283H116.6L111.246 34.36H107.147L101.794 20.283H105.097L109.197 31.063Z" fill="#374151"/>
<path fill-rule="evenodd" clip-rule="evenodd" d="M123.714 19.9199C119.72 19.9199 116.558 23.2349 116.558 27.3199C116.558 31.8399 119.618 34.7219 124.132 34.7219C126.658 34.7219 128.271 33.7469 130.241 31.6239L128.038 29.9029C128.036 29.9029 126.374 32.1069 123.893 32.1069C121.009 32.1069 119.794 29.7589 119.794 28.5449H130.615C131.183 23.8949 128.155 19.9209 123.714 19.9209V19.9199ZM119.803 26.0979C119.828 25.8279 120.204 22.5359 123.688 22.5359C127.172 22.5359 127.595 25.8259 127.619 26.0979H119.803Z" fill="#374151"/>
</g>
<defs>
<clipPath id="clip0_186_2999">
<rect width="136" height="48" fill="white"/>
</clipPath>
</defs>
</svg>
