<svg width="16" height="17" viewBox="0 0 16 17" fill="none" xmlns="http://www.w3.org/2000/svg">
<path d="M14.8571 0.26062H1.13929C0.510714 0.26062 0 0.778477 0 1.41419V15.107C0 15.7428 0.510714 16.2606 1.13929 16.2606H14.8571C15.4857 16.2606 16 15.7428 16 15.107V1.41419C16 0.778477 15.4857 0.26062 14.8571 0.26062ZM4.83571 13.9749H2.46429V6.33919H4.83929V13.9749H4.83571ZM3.65 5.29633C2.88929 5.29633 2.275 4.67848 2.275 3.92133C2.275 3.16419 2.88929 2.54633 3.65 2.54633C4.40714 2.54633 5.025 3.16419 5.025 3.92133C5.025 4.68205 4.41071 5.29633 3.65 5.29633ZM13.725 13.9749H11.3536V10.2606C11.3536 9.37491 11.3357 8.23562 10.1214 8.23562C8.88571 8.23562 8.69643 9.19991 8.69643 10.1963V13.9749H6.325V6.33919H8.6V7.38205H8.63214C8.95 6.78205 9.725 6.14991 10.8786 6.14991C13.2786 6.14991 13.725 7.73205 13.725 9.78919V13.9749Z" fill="#A0A5BA"/>
</svg>
