<svg width="25" height="24" viewBox="0 0 25 24" fill="none" xmlns="http://www.w3.org/2000/svg">
<path d="M0.128906 3.58988C0.128906 2.81299 0.401738 2.17207 0.947379 1.66712C1.49302 1.16214 2.20238 0.909668 3.07541 0.909668C3.93287 0.909668 4.6266 1.15825 5.15667 1.65547C5.70231 2.1682 5.97514 2.8363 5.97514 3.6598C5.97514 4.4056 5.71012 5.02708 5.18006 5.5243C4.63441 6.03703 3.91727 6.2934 3.02864 6.2934H3.00525C2.1478 6.2934 1.45406 6.03703 0.923995 5.5243C0.393928 5.01156 0.128906 4.36675 0.128906 3.58988ZM0.432911 23.9828V8.41427H5.62437V23.9828H0.432911ZM8.50072 23.9828H13.6922V15.2896C13.6922 14.7458 13.7545 14.3263 13.8793 14.0311C14.0975 13.5028 14.4288 13.0561 14.8731 12.691C15.3174 12.3258 15.8748 12.1433 16.5451 12.1433C18.2912 12.1433 19.1643 13.3163 19.1643 15.6625V23.9828H24.3557V15.0565C24.3557 12.757 23.8101 11.0129 22.7188 9.82429C21.6275 8.63567 20.1854 8.04137 18.3925 8.04137C16.3814 8.04137 14.8147 8.9037 13.6922 10.6284V10.675H13.6688L13.6922 10.6284V8.41427H8.50072C8.53189 8.91146 8.54749 10.4574 8.54749 13.0522C8.54749 15.6469 8.53189 19.2905 8.50072 23.9828Z" fill="black"/>
</svg>
