<svg width="1362" height="594" viewBox="0 0 1362 594" fill="none" xmlns="http://www.w3.org/2000/svg">
<path fill-rule="evenodd" clip-rule="evenodd" d="M126.062 -219.404C229.08 -210.831 344.662 -201.211 391.234 -117.913C427.082 -53.8274 467.147 -59.9389 457.102 -101.899C454.358 -113.358 455.348 -124.336 462.025 -132.853C468.703 -141.369 479.596 -146.094 491.423 -145.642C502.826 -145.217 515.19 -139.332 523.508 -127.166C531.997 -114.829 539.183 -101.333 547.983 -89.7608C554.943 -89.9872 561.96 -90.1003 568.977 -90.1003C904.092 -90.1003 1175.74 181.551 1175.74 516.666C1175.74 581.29 1150.67 630.889 1216.51 556.532C1252.7 515.647 1281.42 461.691 1281.96 398.566C1282.16 374.432 1278.25 348.712 1269.06 321.493C1240.14 235.876 1278.14 177.788 1317.75 117.154C1410.75 -25.1371 1341.86 -150.961 1234.09 -245.152C1056.29 -400.515 823.624 -494.649 568.949 -494.649C376.521 -494.649 196.684 -440.918 43.5563 -347.633C18.2614 -332.241 -21.9728 -265.891 15.8564 -242.832C39.1141 -228.656 73.548 -223.762 126.033 -219.376L126.062 -219.404ZM1197.36 174.704C1220.53 174.704 1239.4 192.303 1239.4 213.976C1239.4 235.706 1220.56 253.305 1197.36 253.305C1174.19 253.305 1155.34 235.706 1155.34 213.976C1155.34 192.303 1174.16 174.704 1197.36 174.704ZM904.488 -47.829C887.625 -46.6689 873.93 -57.6471 873.93 -73.0956C873.93 -88.5725 887.596 -104.332 904.488 -105.096C921.38 -105.86 935.046 -92.3639 935.046 -76.5475C935.046 -60.7877 921.351 -47.9422 904.488 -47.829V-47.829ZM1075.78 13.5691C1022.67 13.4559 979.609 -32.0126 979.609 -77.6226C979.609 -123.374 1022.67 -165.73 1075.78 -166.438C1128.89 -167.145 1171.95 -126.147 1171.95 -76.406C1171.95 -26.7216 1128.89 13.5691 1075.78 13.5691ZM1141.39 52.8978C1141.39 31.168 1160.18 13.5691 1183.41 13.5691C1206.61 13.5691 1225.4 31.168 1225.4 52.8978C1225.4 74.6277 1206.61 92.2267 1183.41 92.2267C1160.18 92.2267 1141.39 74.6277 1141.39 52.8978ZM1198.07 360.539C1200.7 342.176 1213.86 331.821 1226.79 337.112C1239.66 342.403 1244.19 360.03 1238.53 377.148C1233.1 394.351 1220.45 404.933 1210.63 400.915C1200.81 396.869 1195.44 378.902 1198.1 360.539H1198.07ZM520.255 -169.748C503.561 -180.839 496.601 -198.325 500.336 -213.859C504.07 -229.364 518.218 -241.813 537.769 -242.605C556.415 -243.341 578.512 -227.072 606.155 -220.423C633.799 -213.774 660.876 -218.244 677.145 -209.077C694.207 -199.485 701.167 -181.943 697.432 -166.438C693.697 -150.904 679.522 -138.511 659.603 -136.248C640.646 -134.069 616.256 -142.897 589.915 -152.998C561.819 -155.969 536.099 -159.251 520.226 -169.805L520.255 -169.748ZM904.516 -179.906C904.516 -189.865 918.211 -200.928 935.074 -205.172C951.937 -209.416 965.631 -201.72 965.631 -188.592C965.631 -175.548 951.937 -165.334 935.074 -164.174C918.211 -162.759 904.516 -169.974 904.516 -179.934V-179.906ZM1155.46 -185.366C1138.59 -185.366 1124.9 -198.212 1124.9 -213.972C1124.9 -229.788 1138.56 -242.577 1155.46 -242.577C1172.32 -242.577 1186.01 -229.788 1186.01 -213.972C1186.01 -198.212 1172.32 -185.366 1155.46 -185.366ZM327.883 -324.743C315.943 -313.68 294.751 -307.37 271.522 -301.004C250.725 -288.838 231.372 -278.086 215.131 -277.294C198.07 -276.473 184.432 -284.962 179.141 -297.524C173.85 -310.058 177.274 -325.79 190.346 -336.202C202.795 -346.133 226.223 -346.133 248.575 -355.555C270.927 -364.949 287.31 -381.727 303.098 -383.68C319.678 -385.717 333.316 -377.172 338.607 -364.638C343.898 -352.075 340.418 -336.4 327.883 -324.771V-324.743ZM1014.72 -239.097C1014.72 -254.574 1028.39 -270.334 1045.28 -271.097C1062.17 -271.89 1075.84 -258.365 1075.84 -242.549C1075.84 -226.789 1062.14 -213.943 1045.28 -213.83C1028.42 -212.67 1014.72 -223.648 1014.72 -239.097ZM806.336 -319.537C781.465 -328.506 756.85 -331.449 739.817 -336.089C723.066 -340.673 717.125 -353.773 722.501 -365.713C727.792 -377.681 742.788 -386.226 763.074 -387.499C782.201 -388.716 806.251 -381.756 830.754 -371.372C855.256 -360.988 874.836 -346.218 886.833 -331.166C898.829 -316.113 903.837 -301.938 898.546 -291.158C893.227 -280.378 878.457 -273.757 861.651 -279.19C845.184 -284.537 827.245 -302.249 806.336 -319.537V-319.537ZM533.411 -359.488C503.08 -368.684 476.484 -361.61 457.244 -348.567C438.4 -335.806 425.809 -341.72 425.215 -355.442C424.621 -369.165 435.514 -385.66 454.895 -402.467C473.286 -418.425 499.657 -437.127 529.818 -442.248C559.98 -447.37 586.519 -430.931 607.485 -418.085C626.838 -406.258 640.221 -395.252 640.816 -381.529C641.41 -367.807 630.29 -353.603 610.569 -346.812C591.584 -340.305 563.941 -344.521 533.383 -359.432L533.411 -359.488Z" fill="#F8F8F8"/>
</svg>
