<svg width="139" height="38" viewBox="0 0 139 38" fill="none" xmlns="http://www.w3.org/2000/svg">
<path fill-rule="evenodd" clip-rule="evenodd" d="M30.816 0C34.8 0 38.029 3.256 38.029 7.273C38.0324 8.76568 37.5764 10.2232 36.7228 11.4478C35.8693 12.6724 34.6596 13.6046 33.258 14.118L39.072 24.58H43.052C43.665 24.58 44.162 25.08 44.162 25.698C44.162 26.316 43.665 26.816 43.052 26.816H1.60998C0.997977 26.816 0.500977 26.316 0.500977 25.698C0.500977 25.08 0.997976 24.58 1.61098 24.58H5.59098L15.944 6.018C16.0367 5.85099 16.1712 5.71086 16.3342 5.61125C16.4972 5.51164 16.6832 5.45595 16.8741 5.4496C17.0651 5.44326 17.2544 5.48648 17.4236 5.57505C17.5929 5.66362 17.7363 5.79452 17.84 5.955L23.788 15.144L25.638 12.335C24.3291 10.9752 23.5995 9.16033 23.603 7.273C23.603 3.256 26.833 0 30.817 0H30.816ZM25.107 17.183L29.895 24.58H36.529L29.072 11.162L25.107 17.183ZM27.247 24.58L16.98 8.72L8.13498 24.58H27.247ZM35.949 7.273C35.9519 8.39514 35.5899 9.48781 34.9174 10.3861C34.2449 11.2845 33.2985 11.9397 32.221 12.253L30.12 8.472C30.0278 8.30537 29.8941 8.16537 29.732 8.06556C29.5698 7.96574 29.3846 7.90949 29.1943 7.90225C29.004 7.895 28.8151 7.93702 28.6458 8.02422C28.4765 8.11143 28.3326 8.24086 28.228 8.4L26.826 10.53C26.0835 9.60707 25.6797 8.45753 25.682 7.273C25.682 4.414 27.981 2.097 30.816 2.097C33.651 2.097 35.949 4.414 35.949 7.273Z" fill="#374151"/>
<path d="M10.1197 30.1731C9.5087 30.1731 9.0127 30.6731 9.0127 31.2901C9.0127 31.9071 9.5087 32.4061 10.1197 32.4061H34.5397C35.1517 32.4061 35.6477 31.9061 35.6477 31.2901C35.6477 30.6731 35.1517 30.1731 34.5407 30.1731H10.1197ZM18.6327 35.7631C18.0197 35.7631 17.5227 36.2631 17.5227 36.8821C17.5227 37.4991 18.0197 38.0001 18.6327 38.0001H26.0287C26.6407 38.0001 27.1377 37.5001 27.1377 36.8821C27.1377 36.2641 26.6407 35.7621 26.0277 35.7621H18.6327V35.7631Z" fill="#374151"/>
<path fill-rule="evenodd" clip-rule="evenodd" d="M120.527 16.871C119.545 15.621 118.074 14.948 116.18 14.948C113.196 14.948 110.131 17.476 110.131 21.734C110.131 25.992 113.196 28.52 116.18 28.52C118.074 28.52 119.545 27.86 120.527 26.597V27.655C120.527 30.1 119.055 31.585 116.385 31.585C114.791 31.585 113.278 31.061 111.957 30.251L110.921 32.683C112.297 33.673 114.436 34.208 116.385 34.208C120.745 34.208 123.388 31.668 123.388 27.531V15.291H120.527V16.871ZM113.06 21.734C113.06 19.509 114.504 17.654 116.915 17.654C119.218 17.654 120.772 19.427 120.772 21.734C120.772 24.042 119.218 25.814 116.915 25.814C114.504 25.814 113.06 23.947 113.06 21.734ZM104.841 16.885C103.942 15.717 102.593 14.948 100.74 14.948C97.09 14.948 94.214 17.846 94.214 21.871C94.214 25.896 97.089 28.795 100.74 28.795C102.594 28.795 103.942 28.04 104.841 26.872V28.452H107.689V15.292H104.841V16.885ZM97.143 21.871C97.143 19.564 98.629 17.654 101.081 17.654C103.438 17.654 105.019 19.467 105.019 21.871C105.019 24.275 103.438 26.089 101.081 26.089C98.629 26.089 97.143 24.179 97.143 21.871ZM138.5 21.858C138.487 17.751 135.98 14.948 132.328 14.948C128.486 14.948 125.829 17.751 125.829 21.872C125.829 26.048 128.595 28.796 132.505 28.796C134.481 28.796 136.279 28.316 137.873 26.942L136.456 24.894C135.38 25.759 133.99 26.282 132.682 26.282C130.829 26.282 129.181 25.292 128.799 22.929H138.446C138.473 22.6 138.5 22.229 138.5 21.859V21.858ZM128.813 20.745C129.113 18.822 130.243 17.503 132.273 17.503C134.086 17.503 135.271 18.698 135.584 20.745H128.813Z" fill="#374151"/>
<path d="M64.8326 22.9569L59.2866 9.21894H54.5596V28.4519H57.6396V12.7769L63.2096 26.5699H66.4526L72.0256 12.6259V28.4519H75.1056V9.21894H70.3766L64.8316 22.9569H64.8326ZM81.7036 28.4519V15.2919H78.8436V28.4519H81.7036ZM93.8856 15.3189C93.2316 15.0579 92.5636 14.9489 91.6916 14.9489C90.0976 14.9489 88.7616 15.5249 87.9036 16.7749V15.2899H85.0836V28.4499H87.9316V21.2099C87.9316 18.9719 89.2256 17.6799 91.0376 17.6799C91.7326 17.6799 92.6046 17.8449 93.2036 18.1599L93.8856 15.3179V15.3189ZM82.2756 10.7439C82.2756 9.60394 81.3896 8.71094 80.2586 8.71094C79.1286 8.71094 78.2686 9.60394 78.2686 10.7439C78.2686 11.8839 79.1286 12.7499 80.2586 12.7499C81.3896 12.7499 82.2756 11.8839 82.2756 10.7439Z" fill="#374151"/>
</svg>
