<svg width="156" height="54" viewBox="0 0 156 54" fill="none" xmlns="http://www.w3.org/2000/svg">
<path fill-rule="evenodd" clip-rule="evenodd" d="M12.3057 16.1655C14.5363 16.3511 17.0389 16.5594 18.0473 18.363C18.8235 19.7506 19.691 19.6183 19.4735 18.7098C19.4141 18.4617 19.4355 18.224 19.5801 18.0396C19.7247 17.8552 19.9605 17.7528 20.2166 17.7626C20.4635 17.7718 20.7312 17.8993 20.9113 18.1627C21.0951 18.4298 21.2507 18.722 21.4413 18.9726C21.592 18.9677 21.7439 18.9652 21.8959 18.9652C29.1519 18.9652 35.0338 24.8472 35.0338 32.1032C35.0338 33.5025 34.491 34.5764 35.9166 32.9664C36.7002 32.0811 37.322 30.9128 37.3336 29.5461C37.3379 29.0235 37.2534 28.4666 37.0543 27.8772C36.4282 26.0234 37.2509 24.7657 38.1086 23.4528C40.1223 20.3719 38.6306 17.6475 36.2971 15.608C32.4473 12.244 27.4096 10.2058 21.8952 10.2058C17.7287 10.2058 13.8348 11.3692 10.5192 13.389C9.97153 13.7223 9.10037 15.1589 9.91946 15.6582C10.423 15.9652 11.1686 16.0712 12.3051 16.1661L12.3057 16.1655ZM35.5019 24.6989C36.0036 24.6989 36.4122 25.08 36.4122 25.5492C36.4122 26.0197 36.0042 26.4008 35.5019 26.4008C35.0001 26.4008 34.5921 26.0197 34.5921 25.5492C34.5921 25.08 34.9995 24.6989 35.5019 24.6989ZM29.1605 19.8805C28.7953 19.9056 28.4988 19.6679 28.4988 19.3334C28.4988 18.9983 28.7947 18.6571 29.1605 18.6406C29.5262 18.624 29.8221 18.9162 29.8221 19.2587C29.8221 19.5999 29.5256 19.8781 29.1605 19.8805V19.8805ZM32.8694 21.2099C31.7194 21.2075 30.787 20.223 30.787 19.2354C30.787 18.2448 31.7194 17.3277 32.8694 17.3124C34.0193 17.297 34.9517 18.1848 34.9517 19.2618C34.9517 20.3375 34.0193 21.2099 32.8694 21.2099ZM34.2901 22.0615C34.2901 21.591 34.6969 21.2099 35.1998 21.2099C35.7022 21.2099 36.109 21.591 36.109 22.0615C36.109 22.532 35.7022 22.9131 35.1998 22.9131C34.6969 22.9131 34.2901 22.532 34.2901 22.0615ZM35.5172 28.7227C35.5741 28.3251 35.859 28.1009 36.139 28.2154C36.4177 28.33 36.5158 28.7116 36.3932 29.0823C36.2756 29.4548 36.0018 29.6839 35.7892 29.5969C35.5766 29.5093 35.4602 29.1203 35.5178 28.7227H35.5172ZM20.8409 17.2407C20.4794 17.0005 20.3287 16.6219 20.4096 16.2856C20.4905 15.9499 20.7968 15.6803 21.2201 15.6631C21.6238 15.6472 22.1023 15.9995 22.7009 16.1435C23.2994 16.2874 23.8857 16.1906 24.238 16.3891C24.6074 16.5968 24.7581 16.9766 24.6772 17.3124C24.5963 17.6487 24.2894 17.917 23.8581 17.966C23.4477 18.0132 22.9196 17.8221 22.3492 17.6034C21.7409 17.539 21.184 17.468 20.8403 17.2395L20.8409 17.2407ZM29.1611 17.0207C29.1611 16.8051 29.4576 16.5656 29.8227 16.4737C30.1879 16.3818 30.4844 16.5484 30.4844 16.8327C30.4844 17.1151 30.1879 17.3363 29.8227 17.3614C29.4576 17.392 29.1611 17.2358 29.1611 17.0201V17.0207ZM34.5945 16.9025C34.2294 16.9025 33.9329 16.6244 33.9329 16.2831C33.9329 15.9407 34.2288 15.6638 34.5945 15.6638C34.9597 15.6638 35.2562 15.9407 35.2562 16.2831C35.2562 16.6244 34.9597 16.9025 34.5945 16.9025ZM16.6756 13.8847C16.4171 14.1242 15.9582 14.2608 15.4552 14.3987C15.0049 14.6621 14.5859 14.8949 14.2342 14.9121C13.8648 14.9298 13.5695 14.746 13.455 14.474C13.3404 14.2026 13.4145 13.862 13.6976 13.6366C13.9671 13.4215 14.4744 13.4215 14.9584 13.2175C15.4424 13.0141 15.7971 12.6508 16.1389 12.6086C16.4979 12.5644 16.7932 12.7495 16.9078 13.0209C17.0223 13.2929 16.947 13.6323 16.6756 13.8841V13.8847ZM31.5473 15.7391C31.5473 15.404 31.8432 15.0628 32.2089 15.0462C32.5747 15.0291 32.8706 15.3219 32.8706 15.6644C32.8706 16.0056 32.5741 16.2837 32.2089 16.2862C31.8438 16.3113 31.5473 16.0736 31.5473 15.7391ZM27.0352 13.9974C26.4967 13.8032 25.9637 13.7395 25.5949 13.639C25.2323 13.5398 25.1036 13.2561 25.22 12.9976C25.3346 12.7384 25.6593 12.5534 26.0985 12.5258C26.5127 12.4995 27.0334 12.6502 27.5639 12.875C28.0945 13.0999 28.5184 13.4197 28.7782 13.7456C29.0379 14.0715 29.1464 14.3785 29.0318 14.6119C28.9166 14.8453 28.5968 14.9886 28.2329 14.871C27.8764 14.7552 27.488 14.3717 27.0352 13.9974V13.9974ZM21.1258 13.1324C20.469 12.9332 19.8931 13.0864 19.4766 13.3688C19.0685 13.6451 18.7959 13.5171 18.7831 13.22C18.7702 12.9228 19.0061 12.5657 19.4257 12.2018C19.8239 11.8562 20.3949 11.4513 21.048 11.3404C21.701 11.2295 22.2757 11.5855 22.7296 11.8636C23.1487 12.1197 23.4385 12.358 23.4513 12.6551C23.4642 12.9522 23.2234 13.2598 22.7964 13.4068C22.3853 13.5477 21.7868 13.4564 21.1252 13.1336L21.1258 13.1324Z" fill="#F58634"/>
<path fill-rule="evenodd" clip-rule="evenodd" d="M39.3997 24.2971C38.7503 25.2908 38.1279 26.2434 38.5145 27.3878C38.7693 28.1432 38.8778 28.8686 38.8723 29.5578C38.8569 31.3534 38.066 32.8599 37.0687 33.9859C36.1981 34.9692 34.6702 35.4409 34.2266 36.6441C33.625 38.2774 32.7079 39.7581 31.5494 41.0128C30.2396 42.4317 30.111 41.8141 31.6328 43.3494L35.2436 46.994C36.5975 48.3608 36.3041 48.6946 37.6035 47.3573C41.4337 43.4137 43.7923 38.033 43.7923 32.1014C43.7923 28.4207 42.8844 24.952 41.2799 21.9072C40.5153 20.4565 40.6863 22.3275 39.4003 24.2959L39.3997 24.2971ZM35.3655 36.8665C35.3655 36.4897 35.6976 36.1068 36.1087 36.0879C36.5191 36.0689 36.8518 36.3972 36.8518 36.782C36.8518 37.1649 36.5191 37.4773 36.1087 37.4804C35.6982 37.5085 35.3655 37.2414 35.3655 36.8659V36.8665ZM34.7811 40.0908C34.9146 39.8494 35.1934 39.8562 35.4176 40.2538C35.6461 40.6599 36.0603 41.0245 36.687 41.1304C37.3688 41.136 37.9025 41.3069 38.1849 41.5936C38.4783 41.8913 38.5512 42.2454 38.4177 42.4868C38.2847 42.7276 37.9453 42.8054 37.4926 42.8446C37.0019 42.8875 36.3782 42.9451 35.8826 42.5836C35.387 42.2222 35.0813 41.6506 34.8932 41.1997C34.6953 40.7249 34.6475 40.331 34.7805 40.0902L34.7811 40.0908ZM40.6048 26.3133C40.4547 26.2251 40.391 25.9702 40.391 25.7276C40.391 25.4856 40.4878 25.2853 40.6048 25.0727C40.7524 24.805 40.8811 24.3369 41.1212 24.3308C41.3614 24.3247 41.4907 24.7866 41.6377 25.0623C41.7553 25.2828 41.8515 25.4856 41.8515 25.7276C41.8515 25.9702 41.7872 26.2232 41.6377 26.3108C41.5182 26.3807 41.3228 26.5436 41.1212 26.8481C40.9197 26.5455 40.7236 26.3837 40.6048 26.3133V26.3133ZM34.2254 43.2465C34.6359 43.2275 34.9685 43.5559 34.9685 43.9406C34.9685 44.3235 34.6359 44.6359 34.2254 44.639C33.815 44.6672 33.4823 44.4001 33.4823 44.0245C33.4823 43.6478 33.8143 43.2649 34.2254 43.2459V43.2465ZM33.4823 40.8554C33.8928 40.8364 34.2254 41.1648 34.2254 41.5495C34.2254 41.9324 33.8928 42.2448 33.4823 42.2485C33.0718 42.2767 32.7392 42.009 32.7392 41.634C32.7392 41.2573 33.0712 40.8744 33.4823 40.8554ZM38.1947 36.978C38.4379 36.7183 38.7785 36.6711 39.0364 36.804C39.2944 36.937 39.4524 37.2414 39.4065 37.6029C39.363 37.9472 39.102 38.3405 38.8092 38.7626C38.6352 39.2466 38.4661 39.6871 38.2106 39.9223C37.9423 40.1698 37.6035 40.217 37.345 40.0841C37.087 39.9511 36.9278 39.6466 36.9988 39.2974C37.0662 38.9648 37.4497 38.6444 37.6874 38.1843C37.9245 37.7242 37.9625 37.2261 38.1947 36.978V36.978ZM37.209 43.5559C37.6194 43.5369 37.9521 43.8652 37.9521 44.25C37.9521 44.6329 37.6194 44.9453 37.209 44.9484C36.7985 44.9766 36.4658 44.7095 36.4658 44.3339C36.4658 43.9571 36.7985 43.5742 37.209 43.5553V43.5559ZM40.3806 35.1579C40.3806 34.8712 40.4749 34.6776 40.6268 34.5973C40.7794 34.5164 40.9258 33.875 41.2223 33.9982C41.5188 34.1213 41.6653 34.5152 41.8178 34.5967C41.9703 34.6782 42.0647 34.8718 42.0647 35.1585C42.0647 35.4452 41.9703 35.7711 41.8178 36.0658C41.6659 36.3605 41.4551 36.6601 41.2223 36.7856C40.9895 36.6594 40.7788 36.3599 40.6268 36.0658C40.4749 35.7711 40.3806 35.4452 40.3806 35.1585V35.1579ZM40.3904 38.5335C40.8008 38.5145 41.1335 38.8429 41.1335 39.2276C41.1335 39.6105 40.8008 39.9229 40.3904 39.926C39.9799 39.9542 39.6472 39.6871 39.6472 39.3115C39.6472 38.9348 39.9799 38.5519 40.3904 38.5329V38.5335ZM40.5938 28.2896C40.5938 28.0029 40.6881 27.8093 40.84 27.7291C40.9926 27.6482 41.1715 27.8418 41.4355 27.8412C41.6996 27.8406 41.8784 27.6476 42.031 27.7285C42.1835 27.8093 42.2779 28.0029 42.2779 28.2896C42.2779 28.5763 42.1835 28.9029 42.031 29.1969C41.8791 29.491 41.6683 29.7912 41.4355 29.9168C41.2027 29.7906 40.992 29.4904 40.84 29.1963C40.6875 28.9017 40.5938 28.5757 40.5938 28.289V28.2896ZM41.8515 30.7775C42.0916 30.7714 42.2191 31.2517 42.3679 31.5439C42.4837 31.7712 42.5818 31.9324 42.5818 32.1743C42.5818 32.4169 42.5076 32.7845 42.3679 32.9604C42.2436 33.1166 42.053 33.2544 41.8515 33.2942C41.6499 33.2581 41.4833 33.0976 41.335 32.945C41.2174 32.8243 41.1212 32.4163 41.1212 32.1737C41.1212 31.9317 41.2144 31.789 41.335 31.5507C41.479 31.2676 41.6113 30.7837 41.8515 30.7769V30.7775Z" fill="#E47833"/>
<path fill-rule="evenodd" clip-rule="evenodd" d="M34.1759 50.2355C33.6214 47.263 30.1515 45.4306 29.0138 43.1479C28.3479 43.578 27.6403 43.9498 26.8984 44.2556C25.0421 45.0207 25.4752 44.5171 25.7105 46.809C25.9494 49.1358 26.1638 51.2935 26.9137 53.423C29.5492 52.8049 32.0022 51.7107 34.1759 50.2361V50.2355ZM27.8418 44.9515C28.2523 44.9325 28.585 45.2609 28.585 45.645C28.585 46.0279 28.2523 46.3403 27.8418 46.344C27.4314 46.3722 27.0987 46.1045 27.0987 45.7295C27.0987 45.3528 27.4307 44.9699 27.8418 44.9515ZM28.7712 47.4118C29.1449 47.2807 29.5701 47.3279 29.986 47.3181C30.2581 47.3114 30.5227 47.3445 30.7359 47.4216C30.9405 47.4964 31.1017 47.6214 31.1666 47.8101C31.2315 47.9987 31.1942 48.2144 31.0692 48.3921C30.9485 48.5636 30.7328 48.6959 30.4621 48.7039C30.0449 48.7155 29.6172 48.6543 29.2423 48.7835C28.8674 48.9128 28.5672 49.224 28.2315 49.4709C28.0128 49.6314 27.7622 49.6602 27.5612 49.5983C27.3529 49.5346 27.1918 49.387 27.1269 49.1983C27.0619 49.0096 27.1116 48.8123 27.228 48.6298C27.3493 48.4405 27.541 48.2603 27.7597 48.0992C28.0955 47.8523 28.3963 47.5429 28.7706 47.4125L28.7712 47.4118ZM31.941 48.9312C32.3514 48.9122 32.6841 49.2406 32.6841 49.6253C32.6841 50.0082 32.3514 50.3206 31.941 50.3243C31.5305 50.3525 31.1978 50.0848 31.1978 49.7098C31.1978 49.3331 31.5299 48.9502 31.941 48.9312ZM29.8917 50.1785C30.3022 50.1595 30.6348 50.4879 30.6348 50.8726C30.6348 51.2555 30.3022 51.568 29.8917 51.571C29.4812 51.5992 29.1486 51.3321 29.1486 50.9565C29.1486 50.5798 29.4812 50.1969 29.8917 50.1779V50.1785ZM27.4749 50.5234C27.8853 50.5044 28.218 50.8328 28.218 51.2175C28.218 51.6004 27.8853 51.9129 27.4749 51.9159C27.0644 51.9441 26.7317 51.677 26.7317 51.3015C26.7317 50.9247 27.0644 50.5418 27.4749 50.5228V50.5234Z" fill="#D76C32"/>
<path fill-rule="evenodd" clip-rule="evenodd" d="M24.3812 53.8603C23.79 51.2744 24.078 48.2351 24.1196 45.0537C23.3973 45.1769 22.6548 45.2406 21.8976 45.2406C19.2584 45.2406 19.9188 44.5091 19.3092 47.5153L18.0625 53.6649C19.308 53.8848 20.5896 54 21.8976 54C22.7375 54 23.5664 53.9528 24.3812 53.8609V53.8603ZM21.3983 51.0226C21.7941 51.0483 22.191 50.8768 22.596 50.7788C22.8594 50.7151 23.102 50.7861 23.2638 50.9197C23.431 51.0581 23.5235 51.2566 23.5107 51.4557C23.4978 51.6548 23.3753 51.8178 23.197 51.9434C23.0114 52.0745 22.7651 52.1762 22.501 52.2405C22.0967 52.3398 21.6991 52.4978 21.3039 52.4697C20.9082 52.4415 20.5369 52.2228 20.1479 52.0727C19.8949 51.9753 19.6621 51.8515 19.4955 51.7008C19.3349 51.555 19.2351 51.3779 19.2479 51.1788C19.2608 50.9797 19.3772 50.7947 19.5616 50.6783C19.7393 50.5662 19.9886 50.5276 20.2416 50.625C20.6307 50.7751 21.0013 50.9963 21.3977 51.0226H21.3983ZM21.3793 46.6196C21.7898 46.6006 22.1224 46.929 22.1224 47.3137C22.1224 47.6966 21.7898 48.0091 21.3793 48.0121C20.9688 48.0403 20.6362 47.7732 20.6362 47.3977C20.6362 47.0209 20.9688 46.638 21.3793 46.619V46.6196Z" fill="#CA6131"/>
<path fill-rule="evenodd" clip-rule="evenodd" d="M14.7702 52.8144C15.5231 50.9937 19.164 45.1559 17.0609 44.3227C13.8794 43.0631 11.307 40.596 9.90835 37.4875C9.61061 37.3417 9.30797 37.2296 9.14869 37.1873C8.88648 37.1181 8.61998 37.1334 8.36268 37.2161C8.07658 37.3074 7.79476 37.482 7.53378 37.7197C7.00753 38.1982 6.58542 38.9119 6.37223 39.7212C6.23561 40.2407 6.00893 40.8546 5.70323 41.4353C5.3528 42.1019 4.89149 42.7378 4.32725 43.1758C4.01665 43.4172 3.67909 43.5979 3.31641 43.6966C5.9538 47.9146 9.98738 51.1701 14.7702 52.815V52.8144ZM14.8339 47.9721C14.5699 48.3434 14.3065 48.7153 14.0424 49.0865C13.779 49.4578 13.5149 49.8297 13.2509 50.2003C13.1994 50.2732 12.936 50.4637 12.8325 50.3902C12.6419 50.2548 12.4514 50.1188 12.2609 49.984C12.0703 49.8486 11.7579 49.6967 11.8706 49.3224C12.093 48.586 12.6168 47.8741 12.6168 47.8741C12.6168 47.8741 12.9752 47.5268 13.2527 47.3773C13.692 47.1408 14.1545 46.7744 14.4945 46.8406C14.7279 46.8859 14.8419 47.1586 15.0196 47.3129C15.1157 47.3969 14.886 47.8999 14.8339 47.9728V47.9721ZM11.1036 43.1801C10.6931 43.2083 10.3605 42.9412 10.3605 42.5656C10.3605 42.1889 10.6931 41.806 11.1036 41.787C11.5141 41.768 11.8467 42.0964 11.8467 42.4811C11.8467 42.864 11.5141 43.1764 11.1036 43.1795V43.1801ZM9.39742 41.0763C8.98695 41.1045 8.65429 40.8374 8.65429 40.4619C8.65429 40.0851 8.98695 39.7022 9.39742 39.6832C9.80788 39.6642 10.1405 39.9926 10.1405 40.3773C10.1405 40.7602 9.80788 41.0727 9.39742 41.0757V41.0763ZM12.131 45.2392C12.324 45.3764 12.3785 45.7428 12.267 46.22C12.1671 46.6458 11.6488 47.4759 11.6488 47.4759C11.6488 47.4759 11.0356 48.2393 10.6656 48.4733C10.252 48.7355 9.88752 48.8041 9.69516 48.6669C9.50279 48.5296 9.44765 48.1639 9.55915 47.6867C9.65901 47.2609 10.1773 46.4314 10.1773 46.4314C10.1773 46.4314 10.7905 45.668 11.16 45.4334C11.5735 45.1712 11.9374 45.1026 12.1304 45.2392H12.131ZM8.65245 41.9058C8.74067 41.9867 6.18844 44.9133 6.18844 44.9133C6.18844 44.9133 6.04018 44.9298 5.96237 44.8373C5.81902 44.667 5.67689 44.4954 5.53231 44.3276C5.38772 44.1591 5.23273 44.0017 5.06793 43.8552C4.97787 43.7756 4.89945 43.7168 4.89945 43.7168C4.89945 43.7168 5.36628 43.3523 5.93787 42.9075C6.98854 42.0884 8.00306 41.3097 8.16541 41.4592C8.32776 41.6081 8.49072 41.7576 8.65307 41.9064L8.65245 41.9058ZM16.387 45.7305C16.4347 46.1103 16.1431 46.462 15.737 46.5165C15.3332 46.5956 14.9699 46.3719 14.9234 45.9995C14.8768 45.6258 15.1586 45.2043 15.5636 45.1344C15.9685 45.0646 16.3392 45.3488 16.387 45.7305ZM14.0424 43.9447C14.0902 44.3245 13.7986 44.6762 13.3924 44.7307C12.9887 44.8097 12.6254 44.5861 12.5788 44.2136C12.5317 43.8399 12.8141 43.4184 13.219 43.3486C13.6246 43.2788 13.9952 43.563 14.043 43.9447H14.0424ZM10.1234 43.5275C10.3495 43.7192 10.0088 44.2694 10.0168 44.6474C10.0199 44.7846 10.097 44.89 10.0346 44.9592C9.71292 45.309 9.3919 45.6594 9.07088 46.0093C8.74986 46.3591 8.42823 46.7095 8.10721 47.0593C8.04411 47.1279 7.85786 47.142 7.84929 47.0097C7.82601 46.6464 8.19359 46.0852 7.96691 45.8775C7.73963 45.6699 7.21215 46.0852 6.84824 46.0926C6.71591 46.095 6.71469 45.9076 6.77779 45.8389C7.09881 45.4891 7.42045 45.1393 7.74147 44.7895C8.06249 44.4397 8.38412 44.0893 8.70514 43.7395C8.76824 43.6708 8.873 43.745 9.00594 43.7425C9.36923 43.7352 9.88936 43.329 10.124 43.5281L10.1234 43.5275Z" fill="#BC5630"/>
<path fill-rule="evenodd" clip-rule="evenodd" d="M4.88208 39.3286C5.17064 38.2308 5.75754 37.2506 6.49637 36.5791C6.91542 36.1981 7.38898 35.9107 7.89257 35.7496C8.32815 35.6099 8.7815 35.5652 9.23791 35.6344C9.19074 35.4647 9.14663 35.2932 9.1062 35.121C8.83235 35.0904 8.57382 35.0304 8.36552 34.9299C8.13579 34.819 7.96486 34.6524 7.9134 34.4239C7.86194 34.1954 7.93239 33.9479 8.10086 33.7555C9.65144 31.9886 9.12458 32.2778 7.85888 31.6676C7.62914 31.5567 7.45821 31.3901 7.40675 31.1616C7.35529 30.9331 7.42574 30.6856 7.59422 30.4932C7.75718 30.3076 8.02551 30.1814 8.34286 30.2071C10.2665 30.3646 8.87952 28.7668 8.26199 28.2773C8.06227 28.1186 7.93239 27.9183 7.93239 27.6843C7.93239 27.4496 8.05492 27.2242 8.26199 27.0735C8.46171 26.9283 8.75148 26.864 9.05535 26.9589C11.1781 27.623 10.1373 25.8433 9.52769 25.0873C9.36779 24.8888 9.28509 24.6646 9.33655 24.4361C9.38801 24.2076 9.55771 24.014 9.79235 23.9129C10.019 23.8149 10.3155 23.8161 10.5918 23.976C11.6805 24.607 12.3734 23.6286 11.8202 22.5026C11.7074 22.2741 11.6762 22.037 11.7767 21.8257C11.8771 21.6137 12.0848 21.4624 12.3366 21.4152C12.5792 21.3699 12.8684 21.436 13.1024 21.6523C13.8731 22.3654 14.3338 21.6002 14.0777 20.5293C14.0183 20.2812 14.0397 20.0435 14.1843 19.8591C14.3289 19.6747 14.5648 19.5724 14.8209 19.5822C15.0677 19.5914 15.3355 19.7194 15.5156 19.9822C16.1013 20.8344 17.4999 20.0349 16.301 18.8581C15.3986 17.9722 13.7052 17.8313 12.1804 17.7045C10.8571 17.5942 9.63551 17.4925 8.81397 16.992C7.32405 16.084 8.28711 14.8998 7.33752 15.7465C2.83527 19.7568 0 25.5989 0 32.1026C0 35.7472 0.890158 39.1834 2.46524 42.2068C2.79484 42.2852 3.10606 42.1737 3.38664 41.9562C3.75606 41.6695 4.07953 41.2119 4.3399 40.7169C4.58802 40.2445 4.77181 39.7483 4.8827 39.328L4.88208 39.3286ZM3.32783 36.4474C4.18307 36.4358 4.87657 37.0968 4.87657 37.8975C4.87657 38.6976 4.18307 39.347 3.32783 39.347C2.47259 39.3452 1.77848 38.6131 1.77848 37.8779C1.77848 37.1409 2.47198 36.4584 3.32783 36.4474V36.4474ZM4.87412 34.7265C4.66031 34.286 4.38156 33.8682 4.31662 33.4075C4.25168 32.9456 4.41219 32.4653 4.48877 31.9813C4.53901 31.6664 4.62355 31.3687 4.75588 31.1401C4.88331 30.9196 5.06281 30.7615 5.29439 30.7278C5.52657 30.6942 5.76734 30.7824 5.94684 30.9655C6.1196 31.142 6.22498 31.4189 6.17536 31.7338C6.09878 32.2178 5.9352 32.6987 6.00321 33.16C6.07059 33.6213 6.36527 34.0348 6.57786 34.4766C6.71631 34.7633 6.69364 35.0598 6.57969 35.2785C6.46146 35.5052 6.25622 35.6596 6.02403 35.6939C5.79185 35.7276 5.57497 35.6271 5.38628 35.4537C5.19024 35.273 5.01319 35.0144 4.87351 34.7271L4.87412 34.7265ZM9.30837 23.3646C9.06086 23.4344 8.77354 23.3628 8.53155 23.171C8.28956 22.9792 8.15416 22.7164 8.16519 22.4597C8.17561 22.2147 8.32877 21.9678 8.5922 21.7858C8.99164 21.5095 9.46275 21.3025 9.75253 20.9367C10.0423 20.571 10.1354 20.0649 10.3131 19.6128C10.4301 19.3145 10.6353 19.1092 10.8712 19.0431C11.1187 18.9732 11.4048 19.0449 11.6474 19.2367C11.8894 19.4284 12.026 19.6912 12.015 19.9485C12.0046 20.1936 11.852 20.4405 11.588 20.6224C11.1885 20.8981 10.7174 21.1052 10.4277 21.4716C10.1379 21.8373 10.0441 22.3433 9.86648 22.7955C9.74946 23.0938 9.54485 23.2997 9.30837 23.3658V23.3646ZM2.79606 34.2143C3.05398 34.509 3.00742 34.9703 2.69314 35.246C2.37825 35.5211 1.91448 35.5058 1.65718 35.2111C1.39926 34.9164 1.44582 34.4551 1.7601 34.1794C2.07438 33.9044 2.53876 33.9197 2.79606 34.2143ZM2.42358 31.7448C2.6815 32.0395 2.63555 32.5008 2.32066 32.7765C2.00577 33.0516 1.542 33.0356 1.28469 32.7416C1.02678 32.4469 1.07272 31.985 1.38762 31.7099C1.70251 31.4348 2.16628 31.4501 2.42358 31.7448ZM2.24469 30.307C1.9298 30.582 1.46603 30.5667 1.20873 30.272C0.950808 29.9774 0.997369 29.5161 1.31165 29.2404C1.62654 28.9653 2.09031 28.9806 2.34823 29.2753C2.60615 29.57 2.55959 30.0313 2.24531 30.307H2.24469ZM3.61638 27.2046C3.61638 27.7829 3.11586 28.2522 2.49771 28.2522C1.87956 28.2522 1.37904 27.7829 1.37904 27.2046C1.37904 26.6256 1.87956 26.1564 2.49771 26.1564C3.11586 26.1564 3.61638 26.6256 3.61638 27.2046ZM4.01092 24.0991C4.01092 24.4906 3.67274 24.808 3.25431 24.808C2.8365 24.808 2.49771 24.4906 2.49771 24.0991C2.49771 23.7077 2.8365 23.3903 3.25431 23.3903C3.67274 23.3903 4.01092 23.7077 4.01092 24.0991ZM5.24109 22.0627C5.24109 22.4542 4.9023 22.7716 4.48448 22.7716C4.06605 22.7716 3.72727 22.4542 3.72727 22.0627C3.72727 21.6713 4.06605 21.3539 4.48448 21.3539C4.9023 21.3539 5.24109 21.6713 5.24109 22.0627ZM4.93232 27.0778C4.96601 26.5895 4.93293 26.0884 5.10631 25.6565C5.27968 25.2239 5.65829 24.887 5.96583 24.5059C6.16616 24.2578 6.38794 24.0416 6.61645 23.9092C6.837 23.7818 7.07103 23.734 7.28912 23.8198C7.50722 23.9055 7.67202 24.1028 7.73635 24.3503C7.79822 24.5892 7.75166 24.8821 7.55133 25.1302C7.24379 25.5113 6.86273 25.847 6.69181 26.2807C6.52088 26.7145 6.56989 27.2199 6.53436 27.7088C6.51108 28.0261 6.34505 28.2724 6.13676 28.4047C5.92172 28.542 5.66626 28.5744 5.44816 28.4887C5.23006 28.4029 5.0916 28.2075 5.01503 27.963C4.93477 27.7082 4.90965 27.3963 4.93232 27.0772V27.0778ZM6.43818 19.883C6.43818 20.2745 6.09939 20.5918 5.68157 20.5918C5.26314 20.5918 4.92497 20.2745 4.92497 19.883C4.92497 19.4915 5.26314 19.1742 5.68157 19.1742C6.09939 19.1742 6.43818 19.4915 6.43818 19.883ZM7.95138 18.3067C7.95138 18.6982 7.61321 19.0155 7.19478 19.0155C6.77696 19.0155 6.43818 18.6982 6.43818 18.3067C6.43818 17.9152 6.77696 17.5979 7.19478 17.5979C7.61321 17.5979 7.95138 17.9152 7.95138 18.3067Z" fill="#AF4B2E"/>
<path fill-rule="evenodd" clip-rule="evenodd" d="M33.2266 0C34.2595 7.73512 29.272 7.56113 25.674 9.02901C25.0595 9.00144 25.489 8.24238 25.6354 7.94832C26.7106 5.78633 28.5705 4.45018 31.0854 3.74748C27.1327 4.71667 23.9666 7.68856 22.7242 11.5267C21.1797 0.38841 32.0619 2.17546 33.2266 0V0Z" fill="#F58634"/>
<path fill-rule="evenodd" clip-rule="evenodd" d="M19.8792 6.03171C20.7008 5.67822 21.1492 5.10296 21.4513 4.44132C21.4513 4.44132 21.5879 4.34758 21.6498 4.5522C22.5399 6.29576 23.1029 8.47551 22.5473 10.7894C22.339 10.6553 22.1307 10.5211 21.9224 10.3869C22.1656 8.02706 21.0959 7.06952 19.5974 6.5886C19.1637 6.27003 19.652 6.12974 19.8792 6.03233V6.03171Z" fill="#F58634"/>
<path d="M54.3216 20.9851C54.3216 23.1784 55.0423 24.9635 56.4839 26.3742C57.9564 27.784 59.8361 28.473 62.1548 28.473C64.5053 28.473 66.385 27.784 67.8256 26.4051C69.2981 24.9954 70.0189 23.2093 70.0189 20.9851C70.0189 18.761 69.2981 16.9431 67.8256 15.5333C66.384 14.1236 64.5044 13.4346 62.1548 13.4346C59.8052 13.4346 57.9255 14.1236 56.4839 15.5333C55.0423 16.9431 54.3216 18.7601 54.3216 20.9851V20.9851ZM59.7106 18.3529C60.3369 17.6948 61.1522 17.3503 62.1539 17.3503C63.1564 17.3503 63.9717 17.6948 64.598 18.3529C65.2242 19.0109 65.5378 19.8881 65.5378 20.9533C65.5378 22.0186 65.2242 22.8957 64.598 23.5847C63.9717 24.2428 63.1564 24.5873 62.1539 24.5873C61.1513 24.5873 60.3369 24.2428 59.7106 23.5847C59.0844 22.8957 58.7708 22.0186 58.7708 20.9533C58.7708 19.8881 59.0844 19.0109 59.7106 18.3529V18.3529Z" fill="#373435"/>
<path d="M81.4454 13.6535C79.6912 13.6535 78.4059 14.2489 77.6233 15.4396V14.3116C77.6233 14.0617 77.4979 13.9353 77.247 13.9353H73.644C73.3931 13.9353 73.2677 14.0607 73.2677 14.3116V27.6902C73.2677 27.9402 73.3931 28.0665 73.644 28.0665H77.247C77.497 28.0665 77.6233 27.9411 77.6233 27.6902V19.638C78.2814 18.3846 79.7539 17.602 81.4145 17.602C81.759 17.602 82.0726 17.6338 82.3852 17.6956C82.667 17.7265 82.7925 17.6329 82.7925 17.3511V14.1553C82.7925 13.9053 82.667 13.779 82.448 13.7481C82.1353 13.6853 81.7899 13.6544 81.4454 13.6544V13.6535Z" fill="#373435"/>
<path d="M97.2901 14.907C96.3194 13.9363 94.9087 13.4346 93.06 13.4346C90.9612 13.4346 89.2379 14.1235 87.9526 15.5024C86.6683 16.8813 86.0411 18.6982 86.0411 20.9851C86.0411 23.2411 86.6674 25.058 87.9526 26.4369C89.237 27.7839 90.9294 28.4729 93.0281 28.4729C94.876 28.4729 96.2867 27.9721 97.2892 26.9695V27.6903C97.2892 27.9403 97.4147 28.0666 97.6655 28.0666H101.269C101.519 28.0666 101.645 27.9412 101.645 27.6903V14.3117C101.645 14.0617 101.519 13.9354 101.269 13.9354H97.6655C97.4147 13.9354 97.2892 14.0608 97.2892 14.3117V14.907H97.2901ZM94.0634 24.5254C91.9329 24.5254 90.4922 23.1156 90.4922 20.9851C90.4922 18.8227 91.9338 17.3821 94.0634 17.3821C95.4732 17.3821 96.7584 18.1029 97.2901 19.1363V22.7703C96.7884 23.8046 95.5359 24.5245 94.0634 24.5245V24.5254Z" fill="#373435"/>
<path d="M113.26 13.4346C111.662 13.4346 110.315 13.9045 109.25 14.8135V14.3117C109.25 14.0618 109.125 13.9354 108.874 13.9354H105.271C105.021 13.9354 104.895 14.0609 104.895 14.3117V27.6904C104.895 27.9403 105.02 28.0667 105.271 28.0667H108.874C109.125 28.0667 109.25 27.9412 109.25 27.6904V18.8864C109.783 17.9157 110.723 17.4139 112.007 17.4139C113.793 17.4139 114.702 18.3538 114.702 20.2335V27.6904C114.702 27.9403 114.827 28.0667 115.078 28.0667H118.681C118.932 28.0667 119.058 27.9412 119.058 27.6904V19.5445C119.058 15.6906 116.677 13.4346 113.261 13.4346H113.26Z" fill="#373435"/>
<path d="M128.189 22.7511C128.189 22.9365 128.282 23.0292 128.468 23.0292H133.633C133.193 24.2572 131.826 25.0443 130.065 25.0443C127.657 25.0443 126.151 23.4928 126.151 20.805C126.151 18.1409 127.61 16.4276 130.112 16.4276C131.663 16.4276 132.869 17.0757 133.401 18.2109C133.47 18.3736 133.587 18.42 133.748 18.3736L136.899 17.5165C137.084 17.4474 137.153 17.3311 137.084 17.1693C136.598 15.895 135.718 14.876 134.467 14.1353C133.239 13.3708 131.78 13 130.112 13C127.819 13 125.943 13.7181 124.483 15.1778C123.023 16.6376 122.305 18.5136 122.305 20.8532C122.305 23.1464 123.023 24.9761 124.436 26.3895C125.849 27.7793 127.726 28.4746 130.019 28.4746C132.312 28.4746 134.166 27.8493 135.555 26.575C136.969 25.3006 137.663 23.6336 137.663 21.5713V20.1352C137.663 19.9497 137.571 19.857 137.385 19.857H128.468C128.282 19.857 128.189 19.9497 128.189 20.1352V22.7529V22.7511Z" fill="#373435"/>
<path d="M140.911 20.9226C140.911 23.2094 141.6 25.0273 143.011 26.4053C144.421 27.7841 146.269 28.4731 148.588 28.4731C151.22 28.4731 153.569 27.4705 154.917 25.9353C155.073 25.779 155.042 25.5909 154.885 25.4027L153.099 23.4285C152.911 23.2085 152.723 23.2085 152.567 23.4285C151.658 24.3992 150.436 24.901 148.838 24.9319C146.864 24.9319 145.423 23.8348 145.267 22.1751H154.792C155.042 22.1751 155.168 22.0496 155.199 21.8306C155.292 21.2979 155.324 20.7653 155.324 20.2636C155.324 18.2276 154.666 16.5669 153.382 15.3135C152.098 14.0601 150.405 13.4338 148.306 13.4338C146.082 13.4338 144.296 14.1228 142.949 15.5017C141.602 16.8805 140.912 18.6975 140.912 20.9216L140.911 20.9226ZM145.298 19.2619C145.423 17.8831 146.519 17.006 148.148 17.006C149.809 17.006 150.874 17.9149 150.968 19.2619H145.297H145.298Z" fill="#373435"/>
<path d="M65.1801 36.171C65.1638 36.0576 65.0956 36.0018 64.9933 36.0018H63.9455C63.8448 36.0018 63.7766 36.0576 63.7425 36.1512L60.8542 45.4355L58.0147 36.1512C57.9806 36.0576 57.914 36.0018 57.8117 36.0018H56.7135C56.6128 36.0018 56.5446 36.0576 56.5283 36.171L54.0105 47.7948C53.9764 47.9262 54.0267 48 54.1453 48H55.31C55.4124 48 55.479 47.9442 55.4968 47.8326L57.4055 38.7175L60.159 47.4205C60.1931 47.5141 60.2613 47.5699 60.362 47.5699H61.3074C61.4098 47.5699 61.4764 47.5141 61.5105 47.4205L64.2639 38.6796L66.1726 47.8326C66.1889 47.9442 66.2571 48 66.3578 48H67.5404C67.6752 48 67.7256 47.9262 67.6752 47.7948L65.1752 36.171H65.1801ZM86.5999 48C86.7526 48 86.7851 47.9262 86.7347 47.775L82.1896 36.1512C82.1554 36.0576 82.0872 36.0018 82.0027 36.0018H80.838C80.7536 36.0018 80.6853 36.0576 80.6512 36.1512L76.1239 47.775C76.0736 47.9244 76.1077 48 76.2587 48H77.4413C77.5258 48 77.594 47.9442 77.6265 47.8506L78.7246 44.9856H84.0804L85.1785 47.8506C85.2126 47.9442 85.2809 48 85.3653 48H86.5983H86.5999ZM81.4131 37.9112L83.5931 43.6575H79.2347L81.4147 37.9112H81.4131ZM100.503 42.2159C102.378 42.2159 103.595 41.0174 103.595 39.0702C103.595 37.1986 102.428 36 100.469 36H96.111C95.9924 36 95.942 36.0558 95.942 36.1871V47.811C95.942 47.9424 95.9924 47.9982 96.111 47.9982H97.1928C97.3114 47.9982 97.3618 47.9424 97.3618 47.811V42.2141H98.6288L102.076 47.8848C102.126 47.9586 102.194 47.9964 102.279 47.9964H103.596C103.731 47.9964 103.782 47.865 103.715 47.7714L100.234 42.2123H100.505L100.503 42.2159ZM97.3602 37.3677H100.283C101.431 37.3677 102.108 38.0426 102.108 39.1638C102.108 40.3047 101.449 40.9976 100.3 40.9976H97.3602V37.3659V37.3677ZM120.538 36.0018C120.453 36.0018 120.387 36.0396 120.335 36.0954L114.742 42.9268V36.1889C114.742 36.0576 114.691 36.0018 114.573 36.0018H113.491C113.372 36.0018 113.322 36.0576 113.322 36.1889V47.8128C113.322 47.9442 113.372 48 113.491 48H114.573C114.691 48 114.742 47.9442 114.742 47.8128V45.099L116.954 42.4031L120.283 47.8884C120.333 47.9622 120.401 48 120.486 48H121.853C121.988 48 122.039 47.8686 121.972 47.775L117.984 41.1308L121.988 36.2267C122.073 36.0954 122.022 36.0018 121.886 36.0018H120.534H120.538ZM138.021 36.1889C138.021 36.0576 137.971 36.0018 137.852 36.0018H131.517C131.399 36.0018 131.348 36.0576 131.348 36.1889V47.8128C131.348 47.9442 131.399 48 131.517 48H137.852C137.971 48 138.021 47.9442 138.021 47.8128V46.7277C138.021 46.5963 137.971 46.5405 137.852 46.5405H132.75V42.6659H137.329C137.448 42.6659 137.498 42.6101 137.498 42.4787V41.4871C137.498 41.3557 137.448 41.2999 137.329 41.2999H132.75V37.4631H137.852C137.971 37.4631 138.021 37.4073 138.021 37.2759V36.1908V36.1889ZM147.042 36.0018C146.923 36.0018 146.873 36.0576 146.873 36.1889V37.2561C146.873 37.3875 146.923 37.4433 147.042 37.4433H150.252V47.8128C150.252 47.9442 150.302 48 150.421 48H151.503C151.621 48 151.672 47.9442 151.672 47.8128V37.4433H154.831C154.95 37.4433 155 37.3875 155 37.2561V36.1889C155 36.0576 154.95 36.0018 154.831 36.0018H147.042V36.0018Z" fill="#373435"/>
</svg>
