<svg width="28" height="23" viewBox="0 0 28 23" fill="none" xmlns="http://www.w3.org/2000/svg">
<path d="M11.4996 7.12984C11.5 7.51077 11.8087 7.81941 12.1896 7.81984H12.6496C13.1973 7.81799 13.7082 8.09563 14.005 8.55583C14.3017 9.01624 14.3434 9.59617 14.1156 10.0944C13.8879 10.5924 13.422 10.9403 12.8796 11.0169V11.4999C12.8796 11.7539 12.6736 11.9599 12.4196 11.9599C12.1656 11.9599 11.9596 11.7539 11.9596 11.4999V11.0399H11.0396C10.7856 11.0399 10.5796 10.8339 10.5796 10.5799C10.5796 10.3258 10.7856 10.1199 11.0396 10.1199H12.6496C13.0307 10.1199 13.3396 9.811 13.3396 9.42986C13.3396 9.04872 13.0307 8.73986 12.6496 8.73986H12.1896C11.6423 8.74109 11.132 8.46345 10.8357 8.00323C10.5391 7.54323 10.4974 6.96374 10.725 6.46594C10.9525 5.96795 11.4177 5.62028 11.9596 5.54305V5.05984C11.9596 4.80582 12.1655 4.59984 12.4196 4.59984C12.6736 4.59984 12.8796 4.80582 12.8796 5.05984V5.51984H13.7996C14.0536 5.51984 14.2596 5.72582 14.2596 5.97984C14.2596 6.23387 14.0536 6.43984 13.7996 6.43984H12.1896C11.8086 6.44025 11.5 6.7489 11.4996 7.12984L11.4996 7.12984ZM27.5996 21.8177C27.599 22.1311 27.4741 22.4314 27.2525 22.6529C27.031 22.8745 26.7307 22.9994 26.4173 23H14.062C13.7833 22.9996 13.5137 22.9008 13.3006 22.7211C13.0876 22.5414 12.9447 22.2925 12.897 22.0178C12.8496 21.7432 12.9005 21.4606 13.0408 21.2197L15.7593 16.56H2.3C1.69006 16.5598 1.10521 16.3174 0.673965 15.886C0.242512 15.4548 0.000210285 14.8699 0 14.26V2.3C0.000205344 1.69006 0.242527 1.10521 0.673965 0.673965C1.10521 0.242512 1.69006 0.000210285 2.3 0H22.54C23.1499 0.000205344 23.7348 0.242528 24.166 0.673965C24.5974 1.10521 24.8398 1.69006 24.84 2.3V14.26C24.8416 14.8196 24.6369 15.3601 24.2649 15.778L27.4389 21.2196C27.5451 21.4012 27.6005 21.6076 27.5999 21.8176L27.5996 21.8177ZM17.0196 2.30011H20.2396C20.4934 2.30093 20.6988 2.50629 20.6996 2.76011C20.7006 3.12584 20.8464 3.47618 21.105 3.73473C21.3635 3.99327 21.7139 4.13907 22.0796 4.1401C22.3334 4.14092 22.5388 4.34628 22.5396 4.6001V10.1201C22.5388 10.3739 22.3334 10.5793 22.0796 10.5801C21.8237 10.5815 21.5736 10.6548 21.3574 10.7916L23.0501 13.6989C23.3072 13.5982 23.5276 13.4222 23.6828 13.1941C23.8379 12.9659 23.9204 12.6961 23.9196 12.4201V2.30009C23.9186 1.93435 23.7727 1.58402 23.5142 1.32547C23.2557 1.06693 22.9053 0.921124 22.5396 0.920099H17.0196L17.0196 2.30011ZM23.5148 14.4946L23.754 14.904C23.8623 14.7067 23.9193 14.4851 23.9196 14.26V14.2555C23.7922 14.3475 23.6569 14.4276 23.5148 14.4946V14.4946ZM17.0196 14.398L18.1741 12.42H17.0196V14.398ZM7.81962 14.72H2.29963C1.8 14.7186 1.31476 14.5521 0.91963 14.2463V14.26C0.920657 14.6258 1.06646 14.9761 1.325 15.2347C1.58355 15.4932 1.93388 15.639 2.29962 15.64H7.81961L7.81962 14.72ZM7.81962 0.920062H2.29963C1.93389 0.921088 1.58355 1.06689 1.32501 1.32543C1.06646 1.58398 0.920661 1.93432 0.919636 2.30005V12.42C0.920662 12.7858 1.06647 13.1361 1.32501 13.3947C1.58355 13.6532 1.93389 13.799 2.29963 13.8H7.81962V12.42H4.59962C4.3458 12.4192 4.14045 12.2139 4.13963 11.96C4.1386 11.5943 3.99279 11.244 3.73425 10.9854C3.47571 10.7269 3.12537 10.5811 2.75963 10.58C2.50581 10.5792 2.30045 10.3739 2.29963 10.12V4.60005C2.30046 4.34623 2.50581 4.14087 2.75963 4.14005C3.12537 4.13902 3.47571 3.99322 3.73425 3.73468C3.9928 3.47613 4.1386 3.1258 4.13963 2.76006C4.14045 2.50624 4.3458 2.30088 4.59962 2.30006H7.81962V0.920062ZM16.0996 15.64V0.920062H8.73962V15.64H16.0996ZM26.6796 21.8177C26.68 21.7707 26.6673 21.7245 26.6428 21.6844L20.5109 11.1733C20.4653 11.0914 20.3791 11.0402 20.2854 11.0398H20.1934C20.0998 11.0402 20.0135 11.0914 19.9679 11.1733L13.836 21.6844C13.8116 21.7245 13.7988 21.7707 13.7993 21.8177C13.8009 21.9619 13.9173 22.0783 14.0615 22.0799H26.4168C26.561 22.0783 26.6774 21.9619 26.6791 21.8177H26.6796ZM20.2396 13.8C19.9856 13.8 19.7796 14.006 19.7796 14.26V17.94C19.7796 18.1941 19.9856 18.4 20.2396 18.4C20.4936 18.4 20.6996 18.1941 20.6996 17.94V14.26C20.6996 14.1381 20.6511 14.021 20.5649 13.9348C20.4786 13.8485 20.3616 13.8 20.2396 13.8ZM20.2396 19.32C19.9856 19.32 19.7796 19.526 19.7796 19.78V20.24C19.7796 20.4941 19.9856 20.7 20.2396 20.7C20.4936 20.7 20.6996 20.4941 20.6996 20.24V19.78C20.6996 19.6581 20.6511 19.541 20.5649 19.4547C20.4786 19.3685 20.3616 19.32 20.2396 19.32Z" fill="#BE3717"/>
</svg>
