<svg width="31" height="30" viewBox="0 0 31 30" fill="none" xmlns="http://www.w3.org/2000/svg">
<path d="M29.8281 8.241L22.758 1.17084C22.0079 0.42197 20.9916 0.00128849 19.9316 0.00128849C18.8717 0.00128849 17.855 0.421981 17.1048 1.17084L15.5447 2.731L13.9013 1.17084C13.1511 0.421134 12.134 0 11.0736 0C10.0129 0 8.99564 0.421113 8.24551 1.17084L1.17043 8.241C0.418215 8.99405 -0.0033025 10.0155 1.94876e-05 11.0799C0.0029497 12.144 0.429916 13.1632 1.18629 13.9122L3.18677 15.8235H3.18635C2.77905 16.4108 2.59613 17.1253 2.67106 17.8365C2.74641 18.5477 3.07458 19.2083 3.59616 19.698C4.11731 20.1873 4.79754 20.4732 5.51209 20.503C5.53971 21.2435 5.84529 21.9463 6.36854 22.4708C6.89136 22.9957 7.59339 23.3038 8.33344 23.3335C8.37195 24.0744 8.68046 24.7751 9.20078 25.3038C9.72821 25.8267 10.4318 26.1343 11.174 26.1662C11.2038 26.8811 11.4905 27.561 11.9815 28.0812C12.4725 28.6015 13.1352 28.9272 13.8472 28.998C14.5592 29.0687 15.273 28.8799 15.8569 28.4663L16.5179 29.1223V29.1227C17.0323 29.6359 17.7155 29.9453 18.4409 29.9934C19.1659 30.0415 19.8838 29.8255 20.4618 29.3848C21.0399 28.9444 21.4388 28.3094 21.5845 27.5973C21.6988 27.6145 21.8143 27.6249 21.9299 27.6291C22.6959 27.6312 23.4339 27.3386 23.9906 26.812C24.5473 26.2854 24.8805 25.565 24.9211 24.7999C25.6574 24.7605 26.3527 24.4508 26.8743 23.9296C27.3959 23.4084 27.7065 22.7135 27.7467 21.9772C28.488 21.94 29.1879 21.6256 29.7078 21.0961C30.2679 20.5339 30.5827 19.7724 30.5827 18.9788C30.5827 18.1852 30.2679 17.4237 29.7078 16.8615L28.2939 15.4383L29.8301 13.895C30.579 13.1444 30.9992 12.1277 30.9988 11.0677C30.9984 10.0074 30.5773 8.99065 29.828 8.24095L29.8281 8.241ZM4.65712 17.5205C4.65754 17.2522 4.76554 16.9952 4.95726 16.8076L6.37757 15.3974H6.37715C6.5605 15.196 6.81836 15.0788 7.09044 15.073C7.36253 15.0667 7.6254 15.1726 7.81712 15.3656C8.00926 15.559 8.11348 15.8223 8.10595 16.0944C8.09841 16.3664 7.97995 16.6235 7.77777 16.8055L6.37042 18.2237C6.0841 18.5079 5.65546 18.5933 5.2821 18.441C4.90829 18.2882 4.66215 17.9269 4.65714 17.5238L4.65712 17.5205ZM7.49775 20.341H7.49733C7.49607 20.0789 7.59946 19.8269 7.78448 19.6411L7.91258 19.5121L9.90094 17.5176C10.1873 17.2333 10.6159 17.1479 10.9893 17.3003C11.3631 17.4531 11.6088 17.8144 11.6142 18.2179C11.6109 18.4854 11.5033 18.7411 11.3141 18.9307L9.19392 21.0509V21.0513C8.90634 21.3331 8.47812 21.4151 8.10677 21.2594C7.73548 21.1037 7.49394 20.7407 7.49352 20.338L7.49775 20.341ZM10.3182 23.1715H10.3178C10.3207 22.9074 10.4287 22.6554 10.6179 22.4716L13.4485 19.6411C13.6339 19.4548 13.8859 19.3506 14.1488 19.351C14.4171 19.351 14.6746 19.459 14.8629 19.6511C15.0505 19.8324 15.1547 20.084 15.1509 20.3452C15.1547 20.6156 15.0459 20.8755 14.8508 21.0631L12.0312 23.8835C11.8436 24.0715 11.5891 24.177 11.3237 24.177C11.0583 24.177 10.8038 24.0715 10.6159 23.8835C10.4275 23.6943 10.3204 23.4386 10.3179 23.1715L10.3182 23.1715ZM13.4456 26.7041C13.0609 26.3148 13.0609 25.6885 13.4456 25.2989L15.5829 23.1623V23.1627C15.7692 22.9785 16.0212 22.876 16.2828 22.8764C16.8082 22.8768 17.2414 23.2874 17.2703 23.8115C17.2707 23.8492 17.2736 23.8865 17.2782 23.9237C17.2665 24.1724 17.1615 24.4072 16.984 24.5818L15.1836 26.3721L14.8487 26.7061C14.459 27.0887 13.8344 27.0879 13.4455 26.704L13.4456 26.7041ZM19.3465 27.6991L19.3365 27.7083C18.9476 28.0921 18.3214 28.0888 17.9363 27.7012L17.3114 27.0812L18.4023 25.9979C18.5111 25.8878 18.6115 25.7694 18.7024 25.6442L19.3487 26.2935V26.293C19.5375 26.4781 19.6442 26.7317 19.6442 26.9963C19.6442 27.2608 19.5375 27.5141 19.3487 27.6995L19.3465 27.6991ZM28.287 19.6787V19.6791C28.1028 19.8671 27.8504 19.9734 27.5871 19.9738C27.3225 19.9722 27.0701 19.8642 26.8868 19.6741L26.8775 19.6683L23.3441 16.1425C22.9519 15.7632 22.3278 15.7686 21.9422 16.1546C21.5563 16.5405 21.5509 17.1643 21.9301 17.5565L25.4605 21.0869V21.0873C25.6501 21.274 25.7569 21.5289 25.7569 21.7952C25.7569 22.0614 25.6501 22.3167 25.4605 22.5034C25.065 22.8806 24.4429 22.8806 24.0473 22.5034H24.0414L20.7709 19.2329H20.7705C20.3799 18.8419 19.7466 18.8419 19.356 19.2325C18.9651 19.623 18.9647 20.2563 19.3552 20.6469L22.6307 23.9216H22.6311C23.0221 24.3126 23.0221 24.9463 22.6315 25.3373C22.2406 25.7283 21.6068 25.7287 21.2158 25.3377L20.7579 24.8798L19.2124 23.3264C19.1019 22.7336 18.8177 22.1869 18.3953 21.7563C18.0274 21.395 17.5715 21.1355 17.0729 21.0032C17.1219 20.7872 17.1474 20.5666 17.1491 20.3452C17.1546 19.549 16.836 18.7847 16.2667 18.2279C15.5417 17.5037 14.4964 17.2019 13.4972 17.4275C13.2967 16.6841 12.8158 16.0474 12.1553 15.6519C11.4951 15.2563 10.7069 15.1324 9.95676 15.3061C9.77342 14.6292 9.35775 14.0386 8.78217 13.6376C8.2066 13.237 7.50835 13.0516 6.80976 13.1148C6.11155 13.1776 5.45729 13.4848 4.96295 13.9821L4.56277 14.3773L2.58244 12.484C2.20821 12.1089 1.99808 11.6003 1.99808 11.0707C1.99808 10.5408 2.20821 10.0322 2.58244 9.65716L9.65259 2.58701H9.65301C10.0348 2.21613 10.5471 2.00934 11.0795 2.01185C11.6124 2.01436 12.1227 2.22534 12.5011 2.59998L14.1244 4.13538L10.9728 7.30081C10.2913 7.95089 9.90034 8.84832 9.88866 9.79016C9.87694 10.7324 10.2453 11.6391 10.9105 12.3063C11.5756 12.9731 12.4814 13.344 13.4237 13.3344C14.3656 13.3252 15.2639 12.9367 15.9161 12.2564L19.1024 9.07216L28.296 18.2678V18.2674C28.6824 18.6597 28.6795 19.2905 28.2889 19.679L28.287 19.6787ZM28.4121 12.4776L26.88 14.0168L20.5149 7.65163V7.65205C20.8644 7.25564 20.8456 6.65621 20.4718 6.28286C20.098 5.90905 19.4986 5.89105 19.1026 6.24058L18.3927 6.95052L14.5017 10.8426C14.2158 11.1122 13.8374 11.2629 13.4439 11.2629C13.0509 11.2629 12.6725 11.1122 12.3866 10.8426C12.0998 10.5626 11.9387 10.1791 11.9387 9.77894C11.9387 9.37834 12.0998 8.99491 12.3866 8.71529L18.5165 2.58536V2.58494C18.897 2.22118 19.4031 2.01816 19.9297 2.01816C20.4563 2.01816 20.9624 2.22117 21.343 2.58494L28.4131 9.6551V9.65552C28.7878 10.0302 28.9983 10.5383 28.9983 11.0683C28.9987 11.5983 28.7886 12.1069 28.4144 12.4819L28.4121 12.4776Z" fill="#BE3717"/>
</svg>
