<svg width="158" height="42" viewBox="0 0 158 42" fill="none" xmlns="http://www.w3.org/2000/svg">
<path d="M55.4231 15.1781V12.6871H66.3801V15.1781H62.3041V29.0531H59.4701V15.1781H55.4231ZM73.5211 19.7551C73.0821 19.6771 72.637 19.6383 72.1911 19.6391C70.3711 19.6391 69.3011 20.8271 69.3011 23.2311V29.0241H66.6111V17.5541H69.2421V19.1761H69.3001C69.8201 18.1911 70.9771 17.1761 72.5101 17.1761C72.9431 17.1761 73.2321 17.2061 73.5211 17.2351V19.7551ZM86.3871 29.0241H83.7851V27.5761H83.7271C82.9471 28.5611 81.7031 29.4591 79.7951 29.4591C77.2221 29.4591 74.3021 27.4021 74.3021 23.2891C74.3021 19.6391 76.8751 17.2061 79.9971 17.2061C81.9051 17.2061 83.0621 18.2191 83.7571 19.1171H83.8141V17.5531H86.4161V29.0241H86.3861H86.3871ZM80.4891 27.0841C82.2521 27.0841 83.9001 25.5481 83.9001 23.3461C83.9001 21.0291 82.3971 19.4941 80.5181 19.4941C78.1481 19.4941 77.0191 21.4061 77.0191 23.2891C77.0191 25.2001 78.1191 27.0831 80.4891 27.0831V27.0841V27.0841ZM89.5101 17.5531H92.1701V19.0021H92.2271C93.1231 17.6981 94.4531 17.1771 95.7251 17.1771C98.0961 17.1771 100.178 18.7411 100.178 22.4201V29.0241H97.4881V22.5641C97.4881 20.5941 96.5641 19.5521 95.0311 19.5521C93.3541 19.5521 92.1981 20.7401 92.1981 22.9701V29.0531H89.5101V17.5531H89.5111H89.5101ZM108.302 20.5081C108.186 19.6681 107.55 19.1181 106.769 19.1181C105.844 19.1181 105.324 19.6971 105.324 20.3341C105.324 21.0291 105.671 21.5221 107.665 22.1881C110.123 22.9701 110.99 24.2451 110.99 25.8671C110.99 27.9811 109.4 29.4591 106.769 29.4591C104.023 29.4591 102.664 27.9521 102.461 25.8091H104.948C105.063 26.7651 105.642 27.4891 106.827 27.4891C107.839 27.4891 108.417 26.8521 108.417 26.0691C108.417 25.2011 107.926 24.6501 106.018 24.0131C103.878 23.3181 102.779 22.2461 102.779 20.4501C102.779 18.5671 104.254 17.1771 106.682 17.1771C109.14 17.1771 110.441 18.6251 110.73 20.5071H108.302V20.5081V20.5081ZM113.332 12.2811H116.31V15.0041H113.332V12.2811ZM113.477 17.5531H116.165V29.0531H113.477V17.5531ZM124.463 20.5081C124.347 19.6681 123.711 19.1181 122.93 19.1181C122.005 19.1181 121.485 19.6971 121.485 20.3341C121.485 21.0291 121.832 21.5221 123.827 22.1881C126.284 22.9701 127.151 24.2451 127.151 25.8671C127.151 27.9811 125.561 29.4591 122.93 29.4591C120.184 29.4591 118.825 27.9521 118.623 25.8091H121.109C121.225 26.7651 121.803 27.4891 122.988 27.4891C124 27.4891 124.578 26.8521 124.578 26.0691C124.578 25.2011 124.087 24.6501 122.179 24.0131C120.039 23.3181 118.941 22.2461 118.941 20.4501C118.941 18.5671 120.415 17.1771 122.844 17.1771C125.301 17.1771 126.602 18.6251 126.891 20.5071H124.463V20.5081V20.5081ZM128.308 17.5531H129.753V13.8751H132.442V17.5531H135.304V19.8131H132.413V24.9401C132.413 26.5041 132.905 26.9391 134.003 26.9391C134.466 26.9391 134.986 26.8521 135.391 26.7361V28.9081C134.784 29.0821 134.032 29.1691 133.367 29.1691C130.505 29.1691 129.753 27.4311 129.753 25.0851V19.8131H128.308V17.5531ZM142.619 17.1771C146.204 17.1771 148.748 19.8131 148.748 23.2891C148.748 26.6781 146.175 29.4591 142.619 29.4591C139.121 29.4591 136.49 26.7651 136.49 23.2891C136.49 19.7261 139.15 17.1771 142.619 17.1771V17.1771ZM142.619 27.0541C144.643 27.0541 146.03 25.4321 146.03 23.2891C146.03 21.2611 144.729 19.5521 142.619 19.5521C140.566 19.5521 139.207 21.1451 139.207 23.2891C139.207 25.4901 140.769 27.0541 142.619 27.0541ZM156.671 19.6391C154.849 19.6391 153.78 20.8271 153.78 23.2311V29.0241H151.091V17.5541H153.722V19.1761H153.78C154.3 18.1911 155.456 17.1761 156.989 17.1761C157.422 17.1761 157.711 17.2061 158.001 17.2351V19.7551C157.562 19.6771 157.117 19.6382 156.671 19.6391V19.6391ZM20.8161 34.7311C20.4478 34.7305 20.0948 34.5839 19.8345 34.3232C19.5743 34.0626 19.4281 33.7094 19.4281 33.3411V8.37006C19.4286 8.09581 19.5102 7.82782 19.6627 7.59989C19.8153 7.37196 20.0319 7.19429 20.2852 7.08927C20.5386 6.98425 20.8173 6.95658 21.0864 7.00975C21.3554 7.06293 21.6027 7.19456 21.7971 7.38806C22.0571 7.64806 22.2031 8.00206 22.2031 8.37006V33.3401C22.2031 34.0931 21.5671 34.7301 20.8161 34.7301V34.7311V34.7311ZM15.0331 22.2471H8.38309C8.01496 22.2463 7.66218 22.0995 7.40215 21.8389C7.14213 21.5783 6.99609 21.2252 6.99609 20.8571C6.99609 20.0741 7.60309 19.4661 8.38409 19.4661H15.0341C15.4027 19.4661 15.7563 19.6125 16.017 19.8732C16.2776 20.1339 16.4241 20.4874 16.4241 20.8561C16.4241 21.2247 16.2776 21.5783 16.017 21.8389C15.7563 22.0996 15.4027 22.2461 15.0341 22.2461V22.2471H15.0331ZM33.2761 22.2471H26.5981C26.2298 22.2465 25.8768 22.0999 25.6165 21.8392C25.3563 21.5786 25.2101 21.2254 25.2101 20.8571C25.2101 20.0741 25.8171 19.4661 26.5981 19.4661H33.2481C33.6162 19.4669 33.969 19.6137 34.229 19.8742C34.4891 20.1348 34.6351 20.4879 34.6351 20.8561C34.6351 21.6381 34.0281 22.2461 33.2761 22.2461V22.2471V22.2471Z" fill="#374151"/>
<path d="M20.816 41.712C9.338 41.712 0 32.356 0 20.856C0 9.356 9.338 0 20.816 0C32.294 0 41.632 9.356 41.632 20.856C41.632 32.356 32.294 41.712 20.816 41.712ZM20.816 2.781C10.871 2.781 2.776 10.891 2.776 20.856C2.776 30.821 10.871 38.931 20.816 38.931C30.762 38.931 38.856 30.821 38.856 20.856C38.856 10.891 30.763 2.781 20.817 2.781H20.816V2.781Z" fill="#374151"/>
</svg>
