<svg width="106" height="48" viewBox="0 0 106 48" fill="none" xmlns="http://www.w3.org/2000/svg">
<g clip-path="url(#clip0_186_2986)">
<path fill-rule="evenodd" clip-rule="evenodd" d="M18.5 4L0.5 10V29.5L6.5 31.5V37L24.5 43V11.5L18.5 13.5V4ZM8.5 32.167L18.5 35.5V15.608L22.5 14.275V40.225L8.5 35.56V32.167Z" fill="#374151"/>
<path d="M43.3997 20.4501V31.0001H47.8456V20.4501H51.3756V17.0581H39.8896V20.4511H43.3997V20.4501ZM53.6046 25.2481C53.6046 29.2261 55.9046 31.2541 59.9806 31.2541C63.8806 31.2541 66.3766 29.4011 66.3766 25.2091V17.0591H61.9296V25.0531C61.9296 26.8861 61.5396 27.7831 59.9796 27.7831C58.3996 27.7831 58.0096 26.8861 58.0096 25.0731V17.0581H53.6036V25.2481H53.6046Z" fill="#374151"/>
<path fill-rule="evenodd" clip-rule="evenodd" d="M69.4651 31.0001V17.0581H75.0231C79.0401 17.0581 80.7561 18.8521 80.7561 21.8351V21.9131C80.7561 24.8191 78.8261 26.4571 75.2181 26.4571H73.8721V31.0001H69.4651ZM74.7881 23.4931H73.8721V20.3531H74.8081C75.9581 20.3531 76.5631 20.7831 76.5631 21.8551V21.9331C76.5631 22.9661 75.9581 23.4931 74.7881 23.4931Z" fill="#374151"/>
<path d="M83.0635 31.0001V17.0581H87.4905V27.5881H92.5605V31.0001H83.0635ZM95.0625 17.0581V31.0001H105.28V27.6071H99.4695V25.5211H103.837V22.4211H99.4695V20.4511H104.968V17.0581H95.0625Z" fill="#374151"/>
</g>
<defs>
<clipPath id="clip0_186_2986">
<rect width="105" height="48" fill="white" transform="translate(0.5)"/>
</clipPath>
</defs>
</svg>
