<svg width="24" height="20" viewBox="0 0 24 20" fill="none" xmlns="http://www.w3.org/2000/svg">
<path d="M16.0361 0.00443951V0H17.1614L17.5726 0.0843507C17.8467 0.139112 18.0956 0.210877 18.3192 0.299667C18.5428 0.388457 18.7593 0.492053 18.9684 0.610433C19.1776 0.728812 19.3674 0.849434 19.5376 0.972253C19.7064 1.09361 19.8579 1.22235 19.9921 1.35849C20.1248 1.49612 20.3318 1.53163 20.6132 1.46504C20.8945 1.39845 21.1975 1.30595 21.5221 1.18757C21.8467 1.06919 22.1677 0.936004 22.4851 0.788013C22.8025 0.640022 22.9959 0.54606 23.0651 0.506104C23.1329 0.464684 23.169 0.442486 23.1733 0.439512L23.1776 0.432852L23.1993 0.421754L23.2209 0.410655L23.2426 0.399556L23.2642 0.388457L23.2685 0.381798L23.275 0.377358L23.2815 0.372919L23.2858 0.36626L23.3075 0.3596L23.3291 0.355161L23.3248 0.388457L23.3183 0.421754L23.3075 0.45505L23.2967 0.488346L23.2858 0.510544L23.275 0.532741L23.2642 0.566038C23.257 0.588235 23.2498 0.617825 23.2426 0.654828C23.2354 0.691831 23.1668 0.8398 23.037 1.09878C22.9071 1.35776 22.7448 1.62042 22.55 1.88679C22.3553 2.15316 22.1807 2.35441 22.0264 2.49057C21.8705 2.62819 21.7674 2.72437 21.7169 2.77913C21.6664 2.83536 21.6051 2.88715 21.5329 2.93452L21.4247 3.00777L21.4031 3.01887L21.3814 3.02997L21.3771 3.03663L21.3706 3.04107L21.3641 3.0455L21.3598 3.05216L21.3381 3.06326L21.3165 3.07436L21.3122 3.08102L21.3057 3.08546L21.2992 3.0899L21.2949 3.09656L21.2906 3.10322L21.284 3.10766L21.2775 3.1121L21.2732 3.11876H21.3814L21.9874 2.98557C22.3914 2.89678 22.7773 2.7895 23.1452 2.66371L23.7295 2.46393L23.7944 2.44173L23.8269 2.43063L23.8485 2.41953L23.8702 2.40844L23.8918 2.39734L23.9134 2.38624L23.9567 2.37958L24 2.37514V2.41953L23.9892 2.42397L23.9784 2.43063L23.9741 2.43729L23.9675 2.44173L23.961 2.44617L23.9567 2.45283L23.9524 2.45949L23.9459 2.46393L23.9394 2.46837L23.9351 2.47503L23.9308 2.48169L23.9243 2.48613L23.9134 2.50832L23.9026 2.53052L23.8961 2.53496C23.8932 2.5394 23.8016 2.66517 23.6213 2.91232C23.4409 3.16093 23.3436 3.2867 23.3291 3.28968C23.3147 3.29412 23.2945 3.31631 23.2685 3.35627C23.244 3.39769 23.0911 3.56271 22.8097 3.85128C22.5284 4.13984 22.2529 4.39658 21.9831 4.62153C21.7118 4.84795 21.5748 5.12615 21.5719 5.45616C21.5676 5.78468 21.551 6.15614 21.5221 6.57048C21.4932 6.98484 21.4391 7.43247 21.3598 7.91343C21.2804 8.39438 21.1578 8.93822 20.9919 9.54495C20.826 10.1517 20.624 10.7436 20.3859 11.3208C20.1479 11.8979 19.899 12.4158 19.6393 12.8746C19.3796 13.3333 19.1416 13.7218 18.9252 14.04C18.7087 14.3581 18.4887 14.6578 18.2651 14.939C18.0415 15.2201 17.7587 15.5368 17.4168 15.889C17.0734 16.2397 16.8859 16.4321 16.8541 16.4661C16.821 16.4987 16.6796 16.6201 16.4299 16.8302C16.1818 17.0418 15.9149 17.2534 15.6292 17.465C15.345 17.6752 15.0839 17.8505 14.8458 17.9911C14.6078 18.1317 14.3207 18.2923 13.9845 18.4728C13.6498 18.6548 13.2876 18.8235 12.8981 18.9789C12.5086 19.1343 12.0974 19.2786 11.6646 19.4118C11.2317 19.5449 10.8134 19.6485 10.4094 19.7225C10.0054 19.7965 9.54735 19.8594 9.03517 19.9112L8.26691 19.9889V20H6.86023V19.9889L6.67629 19.9778C6.55367 19.9704 6.45267 19.963 6.37331 19.9556C6.29397 19.9482 5.99459 19.9075 5.4752 19.8335C4.95582 19.7595 4.54825 19.6855 4.25248 19.6115C3.95673 19.5376 3.51668 19.397 2.93237 19.1898C2.34806 18.9826 1.84815 18.7732 1.43264 18.5616C1.01858 18.3515 0.758889 18.2183 0.653562 18.162C0.549684 18.1073 0.432822 18.0392 0.302976 17.9578L0.108206 17.8357L0.103899 17.8291L0.097385 17.8246L0.0908927 17.8202L0.0865645 17.8135L0.0649234 17.8024L0.0432822 17.7913L0.0389757 17.7847L0.0324617 17.7802L0.0259693 17.7758L0.0216411 17.7691L0.0173345 17.7625L0.0108206 17.758H0V17.7137L0.0216411 17.7181L0.0432822 17.7248L0.140667 17.7358C0.205591 17.7432 0.382334 17.7543 0.670875 17.7691C0.959437 17.7839 1.26601 17.7839 1.59062 17.7691C1.91524 17.7543 2.24708 17.721 2.58611 17.6693C2.92517 17.6175 3.32553 17.5287 3.7872 17.4029C4.24889 17.2771 4.67305 17.1276 5.05971 16.9545C5.44493 16.7799 5.71903 16.6497 5.88208 16.5638C6.04365 16.4795 6.29036 16.3226 6.62218 16.0932L7.11993 15.7492L7.12426 15.7425L7.13075 15.7381L7.13726 15.7336L7.14157 15.727L7.1459 15.7203L7.15239 15.7159L7.1589 15.7114L7.16321 15.7048L7.18485 15.6981L7.20649 15.6937L7.21082 15.6715L7.21731 15.6493L7.22383 15.6448L7.22813 15.6382L7.055 15.6271C6.93959 15.6197 6.82777 15.6123 6.71957 15.6049C6.61136 15.5975 6.44185 15.5642 6.211 15.505C5.98018 15.4458 5.7313 15.357 5.46438 15.2386C5.19748 15.1202 4.93779 14.9796 4.6853 14.8169C4.43284 14.6541 4.25032 14.5187 4.13778 14.4107C4.0267 14.3041 3.88242 14.1532 3.70496 13.9578C3.52895 13.761 3.37601 13.559 3.24617 13.3518C3.11632 13.1447 2.99225 12.9056 2.87396 12.6349L2.69432 12.2309L2.6835 12.1976L2.67268 12.1643L2.66619 12.1421L2.66186 12.1199L2.69432 12.1243L2.72678 12.131L2.96483 12.1643C3.12355 12.1865 3.37242 12.1939 3.71145 12.1865C4.0505 12.1791 4.28494 12.1643 4.41479 12.1421C4.54463 12.1199 4.62399 12.1051 4.65284 12.0977L4.69612 12.0866L4.75023 12.0755L4.80433 12.0644L4.80866 12.0577L4.81515 12.0533L4.82166 12.0488L4.82597 12.0422L4.78269 12.0311L4.73941 12.02L4.69612 12.0089L4.65284 11.9978L4.60956 11.9867C4.58071 11.9793 4.53022 11.9645 4.45807 11.9423C4.38594 11.9201 4.19117 11.8387 3.87376 11.6981C3.55637 11.5575 3.30388 11.4206 3.11632 11.2875C2.92829 11.1539 2.74901 11.0078 2.57962 10.8502C2.41082 10.6903 2.22544 10.4846 2.02344 10.2331C1.82147 9.98151 1.64113 9.68923 1.48242 9.35627C1.32372 9.02331 1.2047 8.70515 1.12534 8.40178C1.0463 8.10019 0.994153 7.79185 0.969544 7.48058L0.930568 7.01443L0.952209 7.01887L0.97385 7.02553L0.995491 7.03663L1.01713 7.04772L1.03877 7.05882L1.06041 7.06992L1.39585 7.22531C1.61949 7.3289 1.89721 7.41769 2.22904 7.49168C2.56088 7.56566 2.75924 7.60637 2.82417 7.61376L2.92155 7.62486H3.11632L3.11201 7.6182L3.1055 7.61376L3.09901 7.60932L3.09468 7.60266L3.09037 7.596L3.08386 7.59156L3.07737 7.58712L3.07304 7.58047L3.0514 7.56937L3.02976 7.55827L3.02545 7.55161L3.01894 7.54717L3.01244 7.54273L3.00812 7.53607L2.98647 7.52497L2.96483 7.51387L2.96053 7.50721C2.9562 7.50424 2.89415 7.45689 2.77439 7.36515C2.65608 7.27192 2.53201 7.15132 2.40216 7.00333C2.27232 6.85534 2.14247 6.69996 2.01262 6.53718C1.88254 6.37403 1.76667 6.19948 1.66637 6.01554C1.56539 5.83057 1.45861 5.59525 1.34608 5.30966C1.23499 5.02553 1.15059 4.73918 1.09288 4.45061C1.03518 4.16204 1.00272 3.87718 0.995491 3.596C0.988285 3.31483 0.995491 3.07436 1.01713 2.87458C1.03877 2.67481 1.08206 2.44912 1.14698 2.19756C1.2119 1.94599 1.3057 1.67962 1.42831 1.39845L1.61226 0.976693L1.62308 0.943396L1.6339 0.9101L1.64042 0.90566L1.64472 0.899001L1.64905 0.892342L1.65555 0.887902L1.66206 0.892342L1.66637 0.899001L1.67069 0.90566L1.67719 0.9101L1.6837 0.914539L1.68801 0.921199L1.69234 0.927858L1.69883 0.932297L1.70965 0.954495L1.72047 0.976693L1.72698 0.981132L1.73129 0.987791L2.02344 1.32075C2.21821 1.54273 2.44906 1.79061 2.71596 2.06437C2.98288 2.33814 3.13076 2.4802 3.1596 2.49057C3.18847 2.5024 3.22453 2.53643 3.26781 2.59267C3.31109 2.64744 3.45537 2.7784 3.70063 2.98557C3.94591 3.19274 4.26691 3.43323 4.66366 3.70699C5.06043 3.98075 5.50046 4.25083 5.98377 4.5172C6.4671 4.78357 6.98649 5.02404 7.54193 5.23862C8.09739 5.45321 8.48693 5.59378 8.71055 5.66038C8.93419 5.72697 9.3165 5.81205 9.85753 5.91565C10.3986 6.01924 10.8061 6.08584 11.0803 6.11543C11.3544 6.14502 11.5419 6.16204 11.6429 6.16648L11.7944 6.17092L11.7901 6.13762L11.7836 6.10433L11.7403 5.82686C11.7115 5.64189 11.697 5.38291 11.697 5.04994C11.697 4.71698 11.7223 4.40992 11.7728 4.12875C11.8233 3.84757 11.899 3.56271 12 3.27414C12.101 2.98557 12.1998 2.75396 12.2965 2.57936C12.3946 2.40622 12.523 2.20866 12.6817 1.98668C12.8404 1.76471 13.046 1.53534 13.2985 1.29856C13.551 1.06178 13.8395 0.850899 14.1641 0.665927C14.4887 0.480954 14.7881 0.340355 15.0622 0.244173C15.3363 0.147991 15.5672 0.0850832 15.7547 0.0554939C15.9423 0.0259046 16.0361 0.00887902 16.0361 0.00443951Z" fill="black"/>
</svg>
