<svg width="28" height="20" viewBox="0 0 28 20" fill="none" xmlns="http://www.w3.org/2000/svg">
<path d="M14.3614 19.1673L8.89399 19.0651C7.12376 19.0295 5.34912 19.1006 3.61359 18.7317C0.973453 18.1805 0.786417 15.478 0.590703 13.2111C0.321029 10.0241 0.425427 6.77934 0.934337 3.61899C1.22163 1.8457 2.35226 0.787564 4.10074 0.672419C10.0031 0.254541 15.9448 0.304064 21.8341 0.499019C22.4561 0.516891 23.0823 0.614574 23.6956 0.725762C26.7231 1.26806 26.7969 4.3306 26.9931 6.90867C27.1888 9.51336 27.1062 12.1314 26.7321 14.7184C26.432 16.8603 25.8578 18.6565 23.4346 18.8299C20.3985 19.0566 17.4321 19.2392 14.3875 19.181C14.3876 19.1673 14.3701 19.1673 14.3614 19.1673ZM11.1471 13.7445C13.4351 12.4021 15.6794 11.082 17.9542 9.74856C15.662 8.40611 13.422 7.08603 11.1471 5.75258V13.7445Z" fill="black"/>
</svg>
